<svg xmlns="http://www.w3.org/2000/svg" width="1440" height="1394" viewBox="0 0 1440 1394"><title>Bosh sahifa — Yordam</title><rect width="1440" height="1394" fill="#F7F8F4"/><rect x="0" y="0" width="1424.8" height="1393.95" rx="0" fill="rgb(247, 248, 244)"/><rect x="0" y="0" width="224" height="1000" rx="0" fill="rgb(255, 255, 255)"/><rect x="29.5" y="28.7" width="39" height="39" rx="11" fill="rgb(23, 99, 77)"/><svg x="37.5" y="36.7" width="23" height="23" viewBox="0 0 24 24" fill="none" stroke="rgb(255, 255, 255)" stroke-width="1.7" stroke-linecap="round" stroke-linejoin="round"><path d="M4 14v-3a8 8 0 0 1 16 0v3M4 12H3v6h4v-6H4m16 0h1v6h-4v-6h3M17 18v2h-5"></path></svg><text x="77" y="55.48" font-family="Manrope, Segoe UI, sans-serif" font-size="24" font-weight="800" fill="rgb(23, 99, 77)" letter-spacing="-1px">yordam</text><text x="169.88" y="55.48" font-family="Manrope, Segoe UI, sans-serif" font-size="24" font-weight="800" fill="rgb(130, 160, 113)" letter-spacing="-1px">.</text><rect x="18" y="96.4" width="187.2" height="55.6" rx="9" fill="none" stroke="rgb(228, 232, 226)" stroke-width="0.8"/><rect x="29.8" y="109.7" width="29" height="29" rx="6" fill="rgb(237, 240, 230)"/><svg x="34.8" y="114.7" width="19" height="19" viewBox="0 0 24 24" fill="none" stroke="rgb(102, 116, 74)" stroke-width="1.7" stroke-linecap="round" stroke-linejoin="round"><path d="M2 5h8l2 3h10v13H2V5z"></path></svg><text x="68.8" y="120.6" font-family="Manrope, Segoe UI, sans-serif" font-size="10" font-weight="700" fill="rgb(37, 53, 46)">Qo‘llab-quvvatlash</text><text x="68.8" y="135.48" font-family="Manrope, Segoe UI, sans-serif" font-size="9" font-weight="400" fill="rgb(102, 115, 108)">Smart Trading jamoasi</text><svg x="174.4" y="114.7" width="19" height="19" viewBox="0 0 24 24" fill="none" stroke="rgb(37, 53, 46)" stroke-width="1.7" stroke-linecap="round" stroke-linejoin="round"><path d="m6 9 6 6 6-6"></path></svg><text x="31" y="187.68" font-family="Manrope, Segoe UI, sans-serif" font-size="9" font-weight="800" fill="rgb(102, 115, 108)" letter-spacing="1.5px">ISH MAYDONI</text><rect x="18" y="202.4" width="187.2" height="44" rx="8" fill="rgb(233, 243, 237)"/><svg x="31" y="214.9" width="19" height="19" viewBox="0 0 24 24" fill="none" stroke="rgb(23, 99, 77)" stroke-width="1.7" stroke-linecap="round" stroke-linejoin="round"><path d="M3 3h7v7H3zM14 3h7v7h-7zM3 14h7v7H3zM14 14h7v7h-7z"></path></svg><text x="62" y="227.84" font-family="Manrope, Segoe UI, sans-serif" font-size="12" font-weight="800" fill="rgb(23, 99, 77)">Bosh sahifa</text><svg x="31" y="263.9" width="19" height="19" viewBox="0 0 24 24" fill="none" stroke="rgb(99, 112, 103)" stroke-width="1.7" stroke-linecap="round" stroke-linejoin="round"><path d="M4 4h16l2 13v3H2v-3L4 4zM3 14h5l2 3h4l2-3h5"></path></svg><text x="62" y="276.84" font-family="Manrope, Segoe UI, sans-serif" font-size="12" font-weight="600" fill="rgb(99, 112, 103)">Murojaatlar</text><rect x="171.98" y="264.4" width="20.23" height="18" rx="5" fill="rgb(227, 232, 223)"/><text x="178.98" y="276.2" font-family="Manrope, Segoe UI, sans-serif" font-size="10" font-weight="600" fill="rgb(82, 99, 78)">6</text><svg x="31" y="320.1" width="19" height="19" viewBox="0 0 24 24" fill="none" stroke="rgb(99, 112, 103)" stroke-width="1.7" stroke-linecap="round" stroke-linejoin="round"><path d="M21 4H3v13h5l4 4v-4h9V4zM7 8h10M7 12h6"></path></svg><text x="62" y="323.44" font-family="Manrope, Segoe UI, sans-serif" font-size="12" font-weight="600" fill="rgb(99, 112, 103)">Javobsiz</text><text x="62" y="342.64" font-family="Manrope, Segoe UI, sans-serif" font-size="12" font-weight="600" fill="rgb(99, 112, 103)">murojaatlar</text><rect x="172.36" y="320.6" width="19.84" height="18" rx="5" fill="rgb(227, 232, 223)"/><text x="179.36" y="332.4" font-family="Manrope, Segoe UI, sans-serif" font-size="10" font-weight="600" fill="rgb(82, 99, 78)">5</text><svg x="31" y="376.3" width="19" height="19" viewBox="0 0 24 24" fill="none" stroke="rgb(99, 112, 103)" stroke-width="1.7" stroke-linecap="round" stroke-linejoin="round"><path d="M4 3v18h17M8 16v-5m5 5V7m5 9V3"></path></svg><text x="62" y="389.24" font-family="Manrope, Segoe UI, sans-serif" font-size="12" font-weight="600" fill="rgb(99, 112, 103)">Hisobotlar</text><svg x="31" y="425.3" width="19" height="19" viewBox="0 0 24 24" fill="none" stroke="rgb(99, 112, 103)" stroke-width="1.7" stroke-linecap="round" stroke-linejoin="round"><path d="M16 21v-3c0-3-2-4-5-4H7c-3 0-5 1-5 4v3M15 3a4 4 0 0 1 0 8m4 3c2 1 3 2 3 4v3M12 7a4 4 0 1 1-8 0 4 4 0 0 1 8 0z"></path></svg><text x="62" y="438.24" font-family="Manrope, Segoe UI, sans-serif" font-size="12" font-weight="600" fill="rgb(99, 112, 103)">Jamoa</text><text x="31" y="496.48" font-family="Manrope, Segoe UI, sans-serif" font-size="9" font-weight="800" fill="rgb(102, 115, 108)" letter-spacing="1.5px">RESURSLAR</text><svg x="31" y="523.7" width="19" height="19" viewBox="0 0 24 24" fill="none" stroke="rgb(99, 112, 103)" stroke-width="1.7" stroke-linecap="round" stroke-linejoin="round"><path d="M12 5C8 2 5 3 2 4v15c3-1 6-2 10 1 4-3 7-2 10-1V4c-3-1-6-2-10 1zm0 0v15"></path></svg><text x="62" y="536.64" font-family="Manrope, Segoe UI, sans-serif" font-size="12" font-weight="600" fill="rgb(99, 112, 103)">Bilimlar bazasi</text><svg x="31" y="572.7" width="19" height="19" viewBox="0 0 24 24" fill="none" stroke="rgb(99, 112, 103)" stroke-width="1.7" stroke-linecap="round" stroke-linejoin="round"><path d="M12 8v5l3 2M21 12a9 9 0 1 1-18 0 9 9 0 0 1 18 0z"></path></svg><text x="62" y="585.64" font-family="Manrope, Segoe UI, sans-serif" font-size="12" font-weight="600" fill="rgb(99, 112, 103)">SLA qoidalari</text><svg x="31" y="621.7" width="19" height="19" viewBox="0 0 24 24" fill="none" stroke="rgb(99, 112, 103)" stroke-width="1.7" stroke-linecap="round" stroke-linejoin="round"><path d="M2 5h8l2 3h10v13H2V5z"></path></svg><text x="62" y="634.64" font-family="Manrope, Segoe UI, sans-serif" font-size="12" font-weight="600" fill="rgb(99, 112, 103)">Loyiha materiallari</text><rect x="18" y="717" width="187.2" height="194" rx="11" fill="rgb(246, 248, 242)"/><rect x="18" y="717" width="187.2" height="194" rx="11" fill="none" stroke="rgb(229, 235, 219)" stroke-width="0.8"/><svg x="34.8" y="733.8" width="26" height="26" viewBox="0 0 24 24" fill="none" stroke="rgb(23, 99, 77)" stroke-width="1.7" stroke-linecap="round" stroke-linejoin="round"><path d="m12 2 9 4v6c0 5-5 8-9 10-4-2-9-5-9-10V6l9-4zM8 12l3 3 5-6"></path></svg><text x="34.8" y="786.44" font-family="Manrope, Segoe UI, sans-serif" font-size="12" font-weight="700" fill="rgb(37, 53, 46)">Har bir javob muhim</text><text x="34.8" y="807.4" font-family="Manrope, Segoe UI, sans-serif" font-size="10" font-weight="400" fill="rgb(102, 115, 108)">Ichki izohlar faqat jamoangizga</text><text x="34.8" y="823.4" font-family="Manrope, Segoe UI, sans-serif" font-size="10" font-weight="400" fill="rgb(102, 115, 108)">ko‘rinadi.</text><rect x="34.8" y="840.6" width="153.6" height="53.6" rx="8" fill="rgb(255, 255, 255)"/><rect x="34.8" y="840.6" width="153.6" height="53.6" rx="8" fill="none" stroke="rgb(228, 232, 226)" stroke-width="0.8"/><text x="46.46" y="870.2" font-family="Manrope, Segoe UI, sans-serif" font-size="10" font-weight="700" fill="rgb(23, 99, 77)">Xavfsiz javob yozish</text><svg x="150.75" y="850.4" width="26" height="26" viewBox="0 0 24 24" fill="none" stroke="rgb(23, 99, 77)" stroke-width="1.7" stroke-linecap="round" stroke-linejoin="round"><path d="M4 12h16m-6-6 6 6-6 6"></path></svg><rect x="18" y="929" width="187.2" height="53" rx="0" fill="none" stroke="rgb(228, 232, 226)" stroke-width="0.8"/><rect x="23" y="947.9" width="33" height="33" rx="50" fill="rgb(219, 236, 224)"/><text x="31.3" y="967.52" font-family="Manrope, Segoe UI, sans-serif" font-size="11" font-weight="800" fill="rgb(23, 99, 77)">MY</text><text x="65" y="961.12" font-family="Manrope, Segoe UI, sans-serif" font-size="11" font-weight="700" fill="rgb(37, 53, 46)">Malika Yusupova</text><text x="65" y="977.28" font-family="Manrope, Segoe UI, sans-serif" font-size="9" font-weight="400" fill="rgb(23, 99, 77)">●</text><text x="70.44" y="977.28" font-family="Manrope, Segoe UI, sans-serif" font-size="9" font-weight="400" fill="rgb(102, 115, 108)"> Agent · onlayn</text><svg x="184.2" y="954.9" width="16" height="19" viewBox="0 0 24 24" fill="none" stroke="rgb(124, 133, 126)" stroke-width="1.7" stroke-linecap="round" stroke-linejoin="round"><path d="m6 9 6 6 6-6"></path></svg><rect x="224" y="0" width="1200.8" height="76" rx="0" fill="rgba(255, 255, 255, 0.72)"/><text x="258" y="40.72" font-family="Manrope, Segoe UI, sans-serif" font-size="11" font-weight="400" fill="rgb(102, 115, 108)">Ish maydoni</text><text x="326.9" y="40.72" font-family="Manrope, Segoe UI, sans-serif" font-size="11" font-weight="400" fill="rgb(102, 115, 108)">/</text><text x="340.16" y="40.72" font-family="Manrope, Segoe UI, sans-serif" font-size="11" font-weight="600" fill="rgb(60, 74, 65)">Bosh sahifa</text><text x="933.23" y="40.4" font-family="Manrope, Segoe UI, sans-serif" font-size="10" font-weight="400" fill="rgb(102, 115, 108)">3-oktabr, 2026 · Shanba</text><rect x="1055.83" y="14.8" width="233.98" height="45.6" rx="8" fill="rgb(247, 248, 244)"/><rect x="1055.83" y="14.8" width="233.98" height="45.6" rx="8" fill="none" stroke="rgb(228, 232, 226)" stroke-width="0.8"/><rect x="1060.63" y="19.6" width="83.05" height="36" rx="5" fill="rgb(255, 255, 255)"/><text x="1071.63" y="40.4" font-family="Manrope, Segoe UI, sans-serif" font-size="10" font-weight="700" fill="rgb(23, 99, 77)">Agent paneli</text><text x="1157.68" y="40.4" font-family="Manrope, Segoe UI, sans-serif" font-size="10" font-weight="700" fill="rgb(102, 115, 108)">Mijoz portali</text><text x="1242.26" y="40.4" font-family="Manrope, Segoe UI, sans-serif" font-size="10" font-weight="700" fill="rgb(102, 115, 108)">Loyiha</text><rect x="1303.8" y="17.6" width="40" height="40" rx="9" fill="rgb(255, 255, 255)"/><rect x="1303.8" y="17.6" width="40" height="40" rx="9" fill="none" stroke="rgb(228, 232, 226)" stroke-width="0.8"/><svg x="1314.3" y="28.1" width="19" height="19" viewBox="0 0 24 24" fill="none" stroke="rgb(23, 99, 77)" stroke-width="1.7" stroke-linecap="round" stroke-linejoin="round"><path d="M18 8a6 6 0 0 0-12 0v7l-2 3h16l-2-3V8M10 21h4"></path></svg><rect x="1326" y="28.4" width="6" height="6" rx="50" fill="rgb(212, 120, 88)"/><rect x="1326" y="28.4" width="6" height="6" rx="50" fill="none" stroke="rgb(255, 255, 255)" stroke-width="0.8"/><rect x="1357.8" y="21.1" width="33" height="33" rx="50" fill="rgb(219, 236, 224)"/><text x="1366.1" y="40.72" font-family="Manrope, Segoe UI, sans-serif" font-size="11" font-weight="800" fill="rgb(23, 99, 77)">MY</text><rect x="258" y="110.5" width="5" height="5" rx="50" fill="rgb(23, 99, 77)"/><text x="269" y="115.8" font-family="Manrope, Segoe UI, sans-serif" font-size="10" font-weight="700" fill="rgb(23, 99, 77)">QO‘LLAB-QUVVATLASH MARKAZI</text><text x="258" y="157.48" font-family="Manrope, Segoe UI, sans-serif" font-size="29" font-weight="800" fill="rgb(37, 53, 46)" letter-spacing="-1.1px">Xayrli kun, Malika!</text><text x="258" y="188.19" font-family="Manrope, Segoe UI, sans-serif" font-size="12" font-weight="400" fill="rgb(102, 115, 108)">Jamoangizning bugungi ish holati. Muhim murojaatlar bir joyda.</text><rect x="1211.68" y="128.18" width="179.13" height="43" rx="8" fill="rgb(23, 99, 77)"/><rect x="1211.68" y="128.18" width="179.13" height="43" rx="8" fill="none" stroke="rgb(23, 99, 77)" stroke-width="0.8"/><svg x="1228.47" y="140.18" width="19" height="19" viewBox="0 0 24 24" fill="none" stroke="rgb(255, 255, 255)" stroke-width="1.7" stroke-linecap="round" stroke-linejoin="round"><path d="M4 4h16l2 13v3H2v-3L4 4zM3 14h5l2 3h4l2-3h5"></path></svg><text x="1255.47" y="153.12" font-family="Manrope, Segoe UI, sans-serif" font-size="12" font-weight="700" fill="rgb(255, 255, 255)">Navbatga o‘tish</text><svg x="1355" y="140.18" width="19" height="19" viewBox="0 0 24 24" fill="none" stroke="rgb(255, 255, 255)" stroke-width="1.7" stroke-linecap="round" stroke-linejoin="round"><path d="M4 12h16m-6-6 6 6-6 6"></path></svg><rect x="258" y="219.35" width="270.45" height="147" rx="14" fill="rgb(23, 99, 77)"/><rect x="258" y="219.35" width="270.45" height="147" rx="14" fill="none" stroke="rgb(23, 99, 77)" stroke-width="0.8"/><text x="278.8" y="258.27" font-family="Manrope, Segoe UI, sans-serif" font-size="11" font-weight="600" fill="rgb(224, 238, 229)">Ochiq murojaatlar</text><rect x="473.65" y="238.15" width="34" height="34" rx="9" fill="rgba(255, 255, 255, 0.086)"/><svg x="481.65" y="245.65" width="18" height="19" viewBox="0 0 24 24" fill="none" stroke="rgb(220, 234, 216)" stroke-width="1.7" stroke-linecap="round" stroke-linejoin="round"><path d="M4 4h16l2 13v3H2v-3L4 4zM3 14h5l2 3h4l2-3h5"></path></svg><text x="278.8" y="311.99" font-family="Manrope, Segoe UI, sans-serif" font-size="32" font-weight="800" fill="rgb(255, 255, 255)" letter-spacing="-1px">06</text><svg x="278.8" y="334.35" width="12" height="12" viewBox="0 0 24 24" fill="none" stroke="rgb(215, 232, 222)" stroke-width="1.7" stroke-linecap="round" stroke-linejoin="round"><path d="M4 12h16m-6-6 6 6-6 6"></path></svg><text x="296.8" y="342.83" font-family="Manrope, Segoe UI, sans-serif" font-size="9" font-weight="400" fill="rgb(215, 232, 222)">Jamoaning joriy navbati</text><rect x="545.45" y="219.35" width="270.45" height="147" rx="14" fill="rgb(255, 255, 255)"/><rect x="545.45" y="219.35" width="270.45" height="147" rx="14" fill="none" stroke="rgb(228, 232, 226)" stroke-width="0.8"/><text x="566.25" y="258.27" font-family="Manrope, Segoe UI, sans-serif" font-size="11" font-weight="600" fill="rgb(102, 115, 108)">Javob kutilmoqda</text><rect x="761.1" y="238.15" width="34" height="34" rx="9" fill="rgb(242, 245, 238)"/><svg x="769.1" y="245.65" width="18" height="19" viewBox="0 0 24 24" fill="none" stroke="rgb(104, 125, 87)" stroke-width="1.7" stroke-linecap="round" stroke-linejoin="round"><path d="M21 4H3v13h5l4 4v-4h9V4zM7 8h10M7 12h6"></path></svg><text x="566.25" y="311.99" font-family="Manrope, Segoe UI, sans-serif" font-size="32" font-weight="800" fill="rgb(37, 53, 46)" letter-spacing="-1px">05</text><svg x="566.25" y="334.35" width="12" height="12" viewBox="0 0 24 24" fill="none" stroke="rgb(102, 115, 108)" stroke-width="1.7" stroke-linecap="round" stroke-linejoin="round"><path d="M4 12h16m-6-6 6 6-6 6"></path></svg><text x="584.25" y="342.83" font-family="Manrope, Segoe UI, sans-serif" font-size="9" font-weight="400" fill="rgb(102, 115, 108)">Mijozga javob berish kerak</text><rect x="832.9" y="219.35" width="270.45" height="147" rx="14" fill="rgb(255, 255, 255)"/><rect x="832.9" y="219.35" width="270.45" height="147" rx="14" fill="none" stroke="rgb(228, 232, 226)" stroke-width="0.8"/><text x="853.7" y="258.27" font-family="Manrope, Segoe UI, sans-serif" font-size="11" font-weight="600" fill="rgb(102, 115, 108)">Javob muddati kechikkan</text><rect x="1048.55" y="238.15" width="34" height="34" rx="9" fill="rgb(242, 245, 238)"/><svg x="1056.55" y="245.65" width="18" height="19" viewBox="0 0 24 24" fill="none" stroke="rgb(104, 125, 87)" stroke-width="1.7" stroke-linecap="round" stroke-linejoin="round"><path d="M12 8v5l3 2M21 12a9 9 0 1 1-18 0 9 9 0 0 1 18 0z"></path></svg><text x="853.7" y="311.99" font-family="Manrope, Segoe UI, sans-serif" font-size="32" font-weight="800" fill="rgb(37, 53, 46)" letter-spacing="-1px">02</text><svg x="853.7" y="334.35" width="12" height="12" viewBox="0 0 24 24" fill="none" stroke="rgb(102, 115, 108)" stroke-width="1.7" stroke-linecap="round" stroke-linejoin="round"><path d="M12 8v5m0 3v.1M10 3 2 18c-.5 1 .2 2 1.3 2h17.4c1.1 0 1.8-1 1.3-2L14 3c-.7-1.2-3.3-1.2-4 0z"></path></svg><text x="871.7" y="342.83" font-family="Manrope, Segoe UI, sans-serif" font-size="9" font-weight="400" fill="rgb(177, 59, 50)">Birinchi navbatda ko‘rib chiqing</text><rect x="1120.35" y="219.35" width="270.45" height="147" rx="14" fill="rgb(255, 255, 255)"/><rect x="1120.35" y="219.35" width="270.45" height="147" rx="14" fill="none" stroke="rgb(228, 232, 226)" stroke-width="0.8"/><text x="1141.15" y="258.27" font-family="Manrope, Segoe UI, sans-serif" font-size="11" font-weight="600" fill="rgb(102, 115, 108)">Yechim berilgan</text><rect x="1336" y="238.15" width="34" height="34" rx="9" fill="rgb(242, 245, 238)"/><svg x="1344" y="245.65" width="18" height="19" viewBox="0 0 24 24" fill="none" stroke="rgb(104, 125, 87)" stroke-width="1.7" stroke-linecap="round" stroke-linejoin="round"><path d="M8 12l3 3 5-6M21 12a9 9 0 1 1-18 0 9 9 0 0 1 18 0z"></path></svg><text x="1141.15" y="311.99" font-family="Manrope, Segoe UI, sans-serif" font-size="32" font-weight="800" fill="rgb(37, 53, 46)" letter-spacing="-1px">02</text><svg x="1141.15" y="334.35" width="12" height="12" viewBox="0 0 24 24" fill="none" stroke="rgb(102, 115, 108)" stroke-width="1.7" stroke-linecap="round" stroke-linejoin="round"><path d="M4 12h16m-6-6 6 6-6 6"></path></svg><text x="1159.15" y="342.83" font-family="Manrope, Segoe UI, sans-serif" font-size="9" font-weight="400" fill="rgb(102, 115, 108)">Tasdiqlangan va tasdiq kutilayotgan</text><rect x="258" y="390.35" width="844.8" height="577" rx="14" fill="rgb(255, 255, 255)"/><rect x="258" y="390.35" width="844.8" height="577" rx="14" fill="none" stroke="rgb(228, 232, 226)" stroke-width="0.8"/><text x="279.8" y="425.83" font-family="Manrope, Segoe UI, sans-serif" font-size="14" font-weight="800" fill="rgb(37, 53, 46)" letter-spacing="-0.35px">Murojaatlar navbati</text><text x="279.8" y="446.35" font-family="Manrope, Segoe UI, sans-serif" font-size="10" font-weight="400" fill="rgb(102, 115, 108)">E’tiboringizni kutayotgan murojaatlar</text><text x="974.35" y="433.65" font-family="Manrope, Segoe UI, sans-serif" font-size="10" font-weight="800" fill="rgb(23, 99, 77)">Barchasini ko‘rish</text><svg x="1067" y="423.85" width="14" height="14" viewBox="0 0 24 24" fill="none" stroke="rgb(23, 99, 77)" stroke-width="1.7" stroke-linecap="round" stroke-linejoin="round"><path d="M4 12h16m-6-6 6 6-6 6"></path></svg><rect x="279.8" y="470.55" width="99.85" height="40" rx="7" fill="rgb(233, 243, 237)"/><rect x="279.8" y="470.55" width="99.85" height="40" rx="7" fill="none" stroke="rgb(220, 234, 222)" stroke-width="0.8"/><text x="290.6" y="493.35" font-family="Manrope, Segoe UI, sans-serif" font-size="10" font-weight="800" fill="rgb(23, 99, 77)">Yopilmagan</text><rect x="353.95" y="483.35" width="14.9" height="14.4" rx="4" fill="rgb(214, 231, 216)"/><text x="358.95" y="493.03" font-family="Manrope, Segoe UI, sans-serif" font-size="9" font-weight="900" fill="rgb(23, 99, 77)">7</text><text x="395.45" y="493.35" font-family="Manrope, Segoe UI, sans-serif" font-size="10" font-weight="600" fill="rgb(102, 115, 108)">Meniki</text><rect x="432.45" y="483.35" width="15.44" height="14.4" rx="4" fill="rgb(237, 240, 235)"/><text x="437.45" y="493.03" font-family="Manrope, Segoe UI, sans-serif" font-size="9" font-weight="900" fill="rgb(102, 115, 108)">2</text><text x="474.49" y="493.35" font-family="Manrope, Segoe UI, sans-serif" font-size="10" font-weight="600" fill="rgb(102, 115, 108)">Javobsiz</text><rect x="521.46" y="483.35" width="15.31" height="14.4" rx="4" fill="rgb(237, 240, 235)"/><text x="526.46" y="493.03" font-family="Manrope, Segoe UI, sans-serif" font-size="9" font-weight="900" fill="rgb(102, 115, 108)">5</text><text x="563.38" y="493.35" font-family="Manrope, Segoe UI, sans-serif" font-size="10" font-weight="600" fill="rgb(102, 115, 108)">Kechikkan</text><rect x="618.05" y="483.35" width="15.44" height="14.4" rx="4" fill="rgb(237, 240, 235)"/><text x="623.05" y="493.03" font-family="Manrope, Segoe UI, sans-serif" font-size="9" font-weight="900" fill="rgb(102, 115, 108)">2</text><svg x="887" y="481.05" width="16" height="19" viewBox="0 0 24 24" fill="none" stroke="rgb(123, 135, 126)" stroke-width="1.7" stroke-linecap="round" stroke-linejoin="round"><path d="M21 21l-5-5M18 10a8 8 0 1 1-16 0 8 8 0 0 1 16 0z"></path></svg><rect x="876" y="472.55" width="205" height="36" rx="7" fill="rgb(255, 255, 255)"/><rect x="876" y="472.55" width="205" height="36" rx="7" fill="none" stroke="rgb(228, 232, 226)" stroke-width="0.8"/><text x="910" y="488.55" font-family="Manrope, Segoe UI, sans-serif" font-size="10" font-weight="400" fill="rgb(0, 0, 0)">Murojaatni qidirish…</text><rect x="258.8" y="525.95" width="284.69" height="37.2" rx="0" fill="rgb(250, 251, 248)"/><rect x="258.8" y="525.95" width="284.69" height="37.2" rx="0" fill="none" stroke="rgb(228, 232, 226)" stroke-width="0.8"/><text x="279.8" y="547.03" font-family="Manrope, Segoe UI, sans-serif" font-size="9" font-weight="700" fill="rgb(102, 115, 108)">Murojaat</text><rect x="543.49" y="525.95" width="150.38" height="37.2" rx="0" fill="rgb(250, 251, 248)"/><rect x="543.49" y="525.95" width="150.38" height="37.2" rx="0" fill="none" stroke="rgb(228, 232, 226)" stroke-width="0.8"/><text x="556.49" y="547.03" font-family="Manrope, Segoe UI, sans-serif" font-size="9" font-weight="700" fill="rgb(102, 115, 108)">Holat</text><rect x="693.86" y="525.95" width="130.11" height="37.2" rx="0" fill="rgb(250, 251, 248)"/><rect x="693.86" y="525.95" width="130.11" height="37.2" rx="0" fill="none" stroke="rgb(228, 232, 226)" stroke-width="0.8"/><text x="706.86" y="547.03" font-family="Manrope, Segoe UI, sans-serif" font-size="9" font-weight="700" fill="rgb(102, 115, 108)">Ustuvorlik</text><rect x="823.98" y="525.95" width="108.6" height="37.2" rx="0" fill="rgb(250, 251, 248)"/><rect x="823.98" y="525.95" width="108.6" height="37.2" rx="0" fill="none" stroke="rgb(228, 232, 226)" stroke-width="0.8"/><text x="836.98" y="547.03" font-family="Manrope, Segoe UI, sans-serif" font-size="9" font-weight="700" fill="rgb(102, 115, 108)">Mas’ul</text><rect x="932.58" y="525.95" width="169.43" height="37.2" rx="0" fill="rgb(250, 251, 248)"/><rect x="932.58" y="525.95" width="169.43" height="37.2" rx="0" fill="none" stroke="rgb(228, 232, 226)" stroke-width="0.8"/><text x="945.58" y="547.03" font-family="Manrope, Segoe UI, sans-serif" font-size="9" font-weight="700" fill="rgb(102, 115, 108)">Javob muddati</text><text x="279.8" y="592.59" font-family="Manrope, Segoe UI, sans-serif" font-size="12" font-weight="700" fill="rgb(37, 53, 46)">Shaxsiy kabinetga kira olmayapman</text><rect x="279.8" y="608.15" width="5" height="5" rx="50" fill="rgb(23, 99, 77)"/><text x="289.8" y="612.43" font-family="Manrope, Segoe UI, sans-serif" font-size="9" font-weight="400" fill="rgb(102, 115, 108)">#HD-8495  ·  Hisob</text><rect x="556.49" y="586.35" width="54.3" height="24" rx="6" fill="rgb(234, 240, 250)"/><rect x="564.49" y="595.35" width="6" height="6" rx="50" fill="rgb(52, 90, 153)"/><text x="576.49" y="601.15" font-family="Manrope, Segoe UI, sans-serif" font-size="10" font-weight="700" fill="rgb(52, 90, 153)">Yangi</text><svg x="706.86" y="586.45" width="19" height="19" viewBox="0 0 24 24" fill="none" stroke="rgb(177, 59, 50)" stroke-width="1.7" stroke-linecap="round" stroke-linejoin="round"><path d="M4 3v18h17M8 16v-5m5 5V7m5 9V3"></path></svg><text x="731.86" y="599.07" font-family="Manrope, Segoe UI, sans-serif" font-size="11" font-weight="400" fill="rgb(177, 59, 50)">Shoshilinch</text><rect x="836.98" y="585.35" width="26" height="26" rx="50" fill="rgb(219, 236, 224)"/><text x="844.09" y="600.83" font-family="Manrope, Segoe UI, sans-serif" font-size="9" font-weight="800" fill="rgb(23, 99, 77)">SB</text><text x="868.98" y="601.47" font-family="Manrope, Segoe UI, sans-serif" font-size="11" font-weight="400" fill="rgb(37, 53, 46)">Sardor</text><svg x="945.58" y="592.35" width="12" height="12" viewBox="0 0 24 24" fill="none" stroke="rgb(177, 59, 50)" stroke-width="1.7" stroke-linecap="round" stroke-linejoin="round"><path d="M12 8v5m0 3v.1M10 3 2 18c-.5 1 .2 2 1.3 2h17.4c1.1 0 1.8-1 1.3-2L14 3c-.7-1.2-3.3-1.2-4 0z"></path></svg><text x="960.58" y="601.95" font-family="Manrope, Segoe UI, sans-serif" font-size="10" font-weight="700" fill="rgb(177, 59, 50)">Kechikkan · 34 daq</text><text x="279.8" y="662.99" font-family="Manrope, Segoe UI, sans-serif" font-size="12" font-weight="700" fill="rgb(37, 53, 46)">To‘lov o‘tdi, balans to‘ldirilmadi</text><rect x="279.8" y="678.55" width="5" height="5" rx="50" fill="rgb(23, 99, 77)"/><text x="289.8" y="682.83" font-family="Manrope, Segoe UI, sans-serif" font-size="9" font-weight="400" fill="rgb(102, 115, 108)">#HD-8492  ·  To‘lovlar</text><rect x="556.49" y="656.75" width="77.78" height="24" rx="6" fill="rgb(247, 239, 220)"/><rect x="564.49" y="665.75" width="6" height="6" rx="50" fill="rgb(133, 84, 18)"/><text x="576.49" y="671.55" font-family="Manrope, Segoe UI, sans-serif" font-size="10" font-weight="700" fill="rgb(133, 84, 18)">Jarayonda</text><svg x="706.86" y="656.85" width="19" height="19" viewBox="0 0 24 24" fill="none" stroke="rgb(171, 101, 34)" stroke-width="1.7" stroke-linecap="round" stroke-linejoin="round"><path d="M4 3v18h17M8 16v-5m5 5V7m5 9V3"></path></svg><text x="731.86" y="669.47" font-family="Manrope, Segoe UI, sans-serif" font-size="11" font-weight="400" fill="rgb(171, 101, 34)">Yuqori</text><rect x="836.98" y="655.75" width="26" height="26" rx="50" fill="rgb(219, 236, 224)"/><text x="843.26" y="671.23" font-family="Manrope, Segoe UI, sans-serif" font-size="9" font-weight="800" fill="rgb(23, 99, 77)">MY</text><text x="868.98" y="671.87" font-family="Manrope, Segoe UI, sans-serif" font-size="11" font-weight="400" fill="rgb(37, 53, 46)">Malika</text><svg x="945.58" y="662.75" width="12" height="12" viewBox="0 0 24 24" fill="none" stroke="rgb(177, 59, 50)" stroke-width="1.7" stroke-linecap="round" stroke-linejoin="round"><path d="M12 8v5m0 3v.1M10 3 2 18c-.5 1 .2 2 1.3 2h17.4c1.1 0 1.8-1 1.3-2L14 3c-.7-1.2-3.3-1.2-4 0z"></path></svg><text x="960.58" y="672.35" font-family="Manrope, Segoe UI, sans-serif" font-size="10" font-weight="700" fill="rgb(177, 59, 50)">Kechikkan · 1 s 24 daq</text><text x="279.8" y="733.39" font-family="Manrope, Segoe UI, sans-serif" font-size="12" font-weight="700" fill="rgb(37, 53, 46)">Parolni tiklash kodi kelmayapti</text><rect x="279.8" y="748.95" width="5" height="5" rx="50" fill="rgb(23, 99, 77)"/><text x="289.8" y="753.23" font-family="Manrope, Segoe UI, sans-serif" font-size="9" font-weight="400" fill="rgb(102, 115, 108)">#HD-8485  ·  Hisob</text><rect x="556.49" y="727.15" width="101.03" height="24" rx="6" fill="rgb(239, 234, 250)"/><rect x="564.49" y="736.15" width="6" height="6" rx="50" fill="rgb(112, 82, 149)"/><text x="576.49" y="741.95" font-family="Manrope, Segoe UI, sans-serif" font-size="10" font-weight="700" fill="rgb(112, 82, 149)">Qayta ochilgan</text><svg x="706.86" y="727.25" width="19" height="19" viewBox="0 0 24 24" fill="none" stroke="rgb(171, 101, 34)" stroke-width="1.7" stroke-linecap="round" stroke-linejoin="round"><path d="M4 3v18h17M8 16v-5m5 5V7m5 9V3"></path></svg><text x="731.86" y="739.87" font-family="Manrope, Segoe UI, sans-serif" font-size="11" font-weight="400" fill="rgb(171, 101, 34)">Yuqori</text><rect x="836.98" y="726.15" width="26" height="26" rx="50" fill="rgb(219, 236, 224)"/><text x="844.09" y="741.63" font-family="Manrope, Segoe UI, sans-serif" font-size="9" font-weight="800" fill="rgb(23, 99, 77)">SB</text><text x="868.98" y="742.27" font-family="Manrope, Segoe UI, sans-serif" font-size="11" font-weight="400" fill="rgb(37, 53, 46)">Sardor</text><svg x="945.58" y="733.15" width="12" height="12" viewBox="0 0 24 24" fill="none" stroke="rgb(102, 115, 108)" stroke-width="1.7" stroke-linecap="round" stroke-linejoin="round"><path d="M12 8v5l3 2M21 12a9 9 0 1 1-18 0 9 9 0 0 1 18 0z"></path></svg><text x="960.58" y="742.75" font-family="Manrope, Segoe UI, sans-serif" font-size="10" font-weight="400" fill="rgb(102, 115, 108)">22 daq qoldi</text><text x="279.8" y="803.79" font-family="Manrope, Segoe UI, sans-serif" font-size="12" font-weight="700" fill="rgb(37, 53, 46)">Hisobotni yuklab olishda xatolik</text><rect x="279.8" y="819.35" width="5" height="5" rx="50" fill="rgb(23, 99, 77)"/><text x="289.8" y="823.63" font-family="Manrope, Segoe UI, sans-serif" font-size="9" font-weight="400" fill="rgb(102, 115, 108)">#HD-8491  ·  Hisobotlar</text><rect x="556.49" y="797.55" width="77.78" height="24" rx="6" fill="rgb(247, 239, 220)"/><rect x="564.49" y="806.55" width="6" height="6" rx="50" fill="rgb(133, 84, 18)"/><text x="576.49" y="812.35" font-family="Manrope, Segoe UI, sans-serif" font-size="10" font-weight="700" fill="rgb(133, 84, 18)">Jarayonda</text><svg x="706.86" y="797.65" width="19" height="19" viewBox="0 0 24 24" fill="none" stroke="rgb(98, 114, 97)" stroke-width="1.7" stroke-linecap="round" stroke-linejoin="round"><path d="M4 3v18h17M8 16v-5m5 5V7m5 9V3"></path></svg><text x="731.86" y="810.27" font-family="Manrope, Segoe UI, sans-serif" font-size="11" font-weight="400" fill="rgb(98, 114, 97)">O‘rta</text><rect x="836.98" y="796.55" width="26" height="26" rx="50" fill="rgb(219, 236, 224)"/><text x="843.26" y="812.03" font-family="Manrope, Segoe UI, sans-serif" font-size="9" font-weight="800" fill="rgb(23, 99, 77)">MY</text><text x="868.98" y="812.67" font-family="Manrope, Segoe UI, sans-serif" font-size="11" font-weight="400" fill="rgb(37, 53, 46)">Malika</text><svg x="945.58" y="803.55" width="12" height="12" viewBox="0 0 24 24" fill="none" stroke="rgb(102, 115, 108)" stroke-width="1.7" stroke-linecap="round" stroke-linejoin="round"><path d="M12 8v5l3 2M21 12a9 9 0 1 1-18 0 9 9 0 0 1 18 0z"></path></svg><text x="960.58" y="813.15" font-family="Manrope, Segoe UI, sans-serif" font-size="10" font-weight="400" fill="rgb(102, 115, 108)">37 daq qoldi</text><text x="279.8" y="874.19" font-family="Manrope, Segoe UI, sans-serif" font-size="12" font-weight="700" fill="rgb(37, 53, 46)">Tarifni o‘zgartirish bo‘yicha yordam</text><text x="279.8" y="894.03" font-family="Manrope, Segoe UI, sans-serif" font-size="9" font-weight="400" fill="rgb(102, 115, 108)">#HD-8482  ·  To‘lovlar</text><rect x="556.49" y="867.95" width="65.94" height="24" rx="6" fill="rgb(232, 243, 235)"/><rect x="564.49" y="876.95" width="6" height="6" rx="50" fill="rgb(40, 99, 70)"/><text x="576.49" y="882.75" font-family="Manrope, Segoe UI, sans-serif" font-size="10" font-weight="700" fill="rgb(40, 99, 70)">Yechildi</text><svg x="706.86" y="868.05" width="19" height="19" viewBox="0 0 24 24" fill="none" stroke="rgb(98, 114, 97)" stroke-width="1.7" stroke-linecap="round" stroke-linejoin="round"><path d="M4 3v18h17M8 16v-5m5 5V7m5 9V3"></path></svg><text x="731.86" y="880.67" font-family="Manrope, Segoe UI, sans-serif" font-size="11" font-weight="400" fill="rgb(98, 114, 97)">O‘rta</text><rect x="836.98" y="866.95" width="26" height="26" rx="50" fill="rgb(219, 236, 224)"/><text x="843.26" y="882.43" font-family="Manrope, Segoe UI, sans-serif" font-size="9" font-weight="800" fill="rgb(23, 99, 77)">MY</text><text x="868.98" y="883.07" font-family="Manrope, Segoe UI, sans-serif" font-size="11" font-weight="400" fill="rgb(37, 53, 46)">Malika</text><svg x="945.58" y="873.95" width="12" height="12" viewBox="0 0 24 24" fill="none" stroke="rgb(102, 115, 108)" stroke-width="1.7" stroke-linecap="round" stroke-linejoin="round"><path d="M12 8v5l3 2M21 12a9 9 0 1 1-18 0 9 9 0 0 1 18 0z"></path></svg><text x="960.58" y="883.55" font-family="Manrope, Segoe UI, sans-serif" font-size="10" font-weight="400" fill="rgb(102, 115, 108)">Tasdiq kutilmoqda</text><rect x="258.8" y="914.75" width="843.2" height="51.8" rx="0" fill="none" stroke="rgb(228, 232, 226)" stroke-width="0.8"/><text x="279.8" y="943.53" font-family="Manrope, Segoe UI, sans-serif" font-size="9" font-weight="400" fill="rgb(102, 115, 108)">5 ta ko‘rsatilmoqda · 7 ta murojaat</text><svg x="911.38" y="929.55" width="19" height="19" viewBox="0 0 24 24" fill="none" stroke="rgb(102, 115, 108)" stroke-width="1.7" stroke-linecap="round" stroke-linejoin="round"><path d="m12 2 9 4v6c0 5-5 8-9 10-4-2-9-5-9-10V6l9-4zM8 12l3 3 5-6"></path></svg><text x="930.38" y="947.83" font-family="Manrope, Segoe UI, sans-serif" font-size="9" font-weight="400" fill="rgb(102, 115, 108)"> Tartib: kechikkanlar, so‘ng ustuvorlik</text><rect x="1124.8" y="390.35" width="266" height="315.4" rx="14" fill="rgb(255, 255, 255)"/><rect x="1124.8" y="390.35" width="266" height="315.4" rx="14" fill="none" stroke="rgb(228, 232, 226)" stroke-width="0.8"/><text x="1146.6" y="425.83" font-family="Manrope, Segoe UI, sans-serif" font-size="14" font-weight="800" fill="rgb(37, 53, 46)" letter-spacing="-0.35px">Javob muddati nazorati</text><svg x="1350" y="411.85" width="19" height="19" viewBox="0 0 24 24" fill="none" stroke="rgb(37, 53, 46)" stroke-width="1.7" stroke-linecap="round" stroke-linejoin="round"><path d="M12 8v5l3 2M21 12a9 9 0 1 1-18 0 9 9 0 0 1 18 0z"></path></svg><circle cx="1257.8" cy="521.05" r="56.5" fill="none" stroke="#EAF0E4" stroke-width="12"/><circle cx="1257.8" cy="521.05" r="56.5" fill="none" stroke="#17634D" stroke-width="12" stroke-dasharray="237.85000000000002 355" transform="rotate(-90 1257.8 521.05)"/><text x="1230.51" y="519.21" font-family="Manrope, Segoe UI, sans-serif" font-size="28" font-weight="700" fill="rgb(37, 53, 46)" letter-spacing="-1px">67%</text><text x="1228.38" y="544.73" font-family="Manrope, Segoe UI, sans-serif" font-size="9" font-weight="400" fill="rgb(102, 115, 108)">Muddat ichida</text><rect x="1187.9" y="603.75" width="6" height="6" rx="50" fill="rgb(23, 99, 77)"/><text x="1198.9" y="609.23" font-family="Manrope, Segoe UI, sans-serif" font-size="9" font-weight="400" fill="rgb(102, 115, 108)">Muddat ichida</text><rect x="1274.75" y="603.75" width="6" height="6" rx="50" fill="rgb(193, 207, 180)"/><text x="1285.75" y="609.23" font-family="Manrope, Segoe UI, sans-serif" font-size="9" font-weight="400" fill="rgb(102, 115, 108)">Kechikkan</text><rect x="1145.6" y="630.95" width="224.4" height="54" rx="8" fill="rgb(246, 248, 242)"/><svg x="1156.6" y="643.95" width="15" height="15" viewBox="0 0 24 24" fill="none" stroke="rgb(23, 99, 77)" stroke-width="1.7" stroke-linecap="round" stroke-linejoin="round"><path d="M12 8v5m0 3v.1M10 3 2 18c-.5 1 .2 2 1.3 2h17.4c1.1 0 1.8-1 1.3-2L14 3c-.7-1.2-3.3-1.2-4 0z"></path></svg><text x="1180.6" y="652.75" font-family="Manrope, Segoe UI, sans-serif" font-size="10" font-weight="400" fill="rgb(102, 115, 108)">2 ta murojaatning javob muddati</text><text x="1180.6" y="668.75" font-family="Manrope, Segoe UI, sans-serif" font-size="10" font-weight="400" fill="rgb(102, 115, 108)">o‘tgan. </text><text x="1214.69" y="668.75" font-family="Manrope, Segoe UI, sans-serif" font-size="10" font-weight="700" fill="rgb(23, 99, 77)">Navbatni ko‘rib chiqing.</text><rect x="1124.8" y="723.75" width="266" height="223" rx="14" fill="rgb(255, 255, 255)"/><rect x="1124.8" y="723.75" width="266" height="223" rx="14" fill="none" stroke="rgb(228, 232, 226)" stroke-width="0.8"/><text x="1146.6" y="759.23" font-family="Manrope, Segoe UI, sans-serif" font-size="14" font-weight="800" fill="rgb(37, 53, 46)" letter-spacing="-0.35px">Jamoa yuklamasi</text><svg x="1312.06" y="747.75" width="14" height="14" viewBox="0 0 24 24" fill="none" stroke="rgb(23, 99, 77)" stroke-width="1.7" stroke-linecap="round" stroke-linejoin="round"><path d="M4 12h16m-6-6 6 6-6 6"></path></svg><text x="1331.06" y="757.87" font-family="Manrope, Segoe UI, sans-serif" font-size="11" font-weight="800" fill="rgb(23, 99, 77)">Ko‘rish</text><rect x="1145.6" y="798.95" width="33" height="33" rx="50" fill="rgb(219, 236, 224)"/><text x="1153.9" y="818.57" font-family="Manrope, Segoe UI, sans-serif" font-size="11" font-weight="800" fill="rgb(23, 99, 77)">MY</text><text x="1187.6" y="812.75" font-family="Manrope, Segoe UI, sans-serif" font-size="10" font-weight="700" fill="rgb(37, 53, 46)">Malika Y.</text><rect x="1187.6" y="824.95" width="141.09" height="4" rx="5" fill="rgb(237, 241, 233)"/><rect x="1187.6" y="824.95" width="70.54" height="4" rx="5" fill="rgb(153, 184, 147)"/><rect x="1337.69" y="804.45" width="32.31" height="22" rx="5" fill="rgb(233, 243, 237)"/><text x="1344.69" y="818.25" font-family="Manrope, Segoe UI, sans-serif" font-size="10" font-weight="800" fill="rgb(23, 99, 77)">2 ta</text><rect x="1145.6" y="845.95" width="33" height="33" rx="50" fill="rgb(235, 230, 247)"/><text x="1154.9" y="865.57" font-family="Manrope, Segoe UI, sans-serif" font-size="11" font-weight="800" fill="rgb(99, 86, 139)">SB</text><text x="1187.6" y="859.75" font-family="Manrope, Segoe UI, sans-serif" font-size="10" font-weight="700" fill="rgb(37, 53, 46)">Sardor B.</text><rect x="1187.6" y="871.95" width="141.09" height="4" rx="5" fill="rgb(237, 241, 233)"/><rect x="1187.6" y="871.95" width="70.54" height="4" rx="5" fill="rgb(153, 184, 147)"/><rect x="1337.69" y="851.45" width="32.31" height="22" rx="5" fill="rgb(233, 243, 237)"/><text x="1344.69" y="865.25" font-family="Manrope, Segoe UI, sans-serif" font-size="10" font-weight="800" fill="rgb(23, 99, 77)">2 ta</text><rect x="1145.6" y="892.95" width="33" height="33" rx="50" fill="rgb(248, 230, 217)"/><text x="1154.84" y="912.57" font-family="Manrope, Segoe UI, sans-serif" font-size="11" font-weight="800" fill="rgb(151, 96, 71)">BA</text><text x="1187.6" y="906.75" font-family="Manrope, Segoe UI, sans-serif" font-size="10" font-weight="700" fill="rgb(37, 53, 46)">Bobur A.</text><rect x="1187.6" y="918.95" width="141.09" height="4" rx="5" fill="rgb(237, 241, 233)"/><rect x="1187.6" y="918.95" width="70.54" height="4" rx="5" fill="rgb(153, 184, 147)"/><rect x="1337.69" y="898.45" width="32.31" height="22" rx="5" fill="rgb(233, 243, 237)"/><text x="1344.69" y="912.25" font-family="Manrope, Segoe UI, sans-serif" font-size="10" font-weight="800" fill="rgb(23, 99, 77)">2 ta</text><rect x="258" y="989.35" width="844.8" height="343.2" rx="14" fill="rgb(234, 241, 227)"/><rect x="258" y="989.35" width="844.8" height="343.2" rx="14" fill="none" stroke="rgb(220, 232, 212)" stroke-width="0.8"/><rect x="281.8" y="1134.95" width="52" height="52" rx="14" fill="rgb(255, 255, 255)"/><svg x="294.3" y="1147.45" width="27" height="27" viewBox="0 0 24 24" fill="none" stroke="rgb(23, 99, 77)" stroke-width="1.7" stroke-linecap="round" stroke-linejoin="round"><path d="M12 5C8 2 5 3 2 4v15c3-1 6-2 10 1 4-3 7-2 10-1V4c-3-1-6-2-10 1zm0 0v15"></path></svg><text x="350.8" y="1146.93" font-family="Manrope, Segoe UI, sans-serif" font-size="14" font-weight="800" fill="rgb(37, 53, 46)" letter-spacing="-0.35px">Yaxshi javob bilimdan boshlanadi.</text><text x="350.8" y="1169.45" font-family="Manrope, Segoe UI, sans-serif" font-size="10" font-weight="400" fill="rgb(96, 115, 89)">Ko‘p uchraydigan savollar va aniq ko‘rsatmalar bilan mijozga tezroq</text><text x="350.8" y="1185.45" font-family="Manrope, Segoe UI, sans-serif" font-size="10" font-weight="400" fill="rgb(96, 115, 89)">yordam bering.</text><rect x="935.35" y="1139.95" width="143.65" height="42" rx="8" fill="rgb(255, 255, 255)"/><rect x="935.35" y="1139.95" width="143.65" height="42" rx="8" fill="none" stroke="rgb(228, 232, 226)" stroke-width="0.8"/><text x="952.15" y="1164.39" font-family="Manrope, Segoe UI, sans-serif" font-size="12" font-weight="700" fill="rgb(23, 99, 77)">Bilimlar bazasi</text><svg x="1043.2" y="1151.45" width="19" height="19" viewBox="0 0 24 24" fill="none" stroke="rgb(23, 99, 77)" stroke-width="1.7" stroke-linecap="round" stroke-linejoin="round"><path d="M4 12h16m-6-6 6 6-6 6"></path></svg><rect x="1124.8" y="989.35" width="266" height="343.2" rx="14" fill="rgb(255, 255, 255)"/><rect x="1124.8" y="989.35" width="266" height="343.2" rx="14" fill="none" stroke="rgb(228, 232, 226)" stroke-width="0.8"/><text x="1146.6" y="1024.83" font-family="Manrope, Segoe UI, sans-serif" font-size="14" font-weight="800" fill="rgb(37, 53, 46)" letter-spacing="-0.35px">So‘nggi faollik</text><text x="1283.21" y="1023.47" font-family="Manrope, Segoe UI, sans-serif" font-size="11" font-weight="400" fill="rgb(102, 115, 108)">Murojaatlar tarixi</text><rect x="1145.6" y="1061.55" width="29" height="29" rx="8" fill="rgb(233, 243, 237)"/><svg x="1153.1" y="1069.05" width="14" height="14" viewBox="0 0 24 24" fill="none" stroke="rgb(23, 99, 77)" stroke-width="1.7" stroke-linecap="round" stroke-linejoin="round"><path d="M20 7V2l-4 4M4 17v5l4-4M20 7A9 9 0 0 0 4 5m0 12a9 9 0 0 0 16 2"></path></svg><text x="1185.6" y="1075.87" font-family="Manrope, Segoe UI, sans-serif" font-size="11" font-weight="700" fill="rgb(37, 53, 46)">Mijoz yechimni tasdiqladi.</text><text x="1185.6" y="1096.67" font-family="Manrope, Segoe UI, sans-serif" font-size="11" font-weight="700" fill="rgb(37, 53, 46)">Murojaat yopildi.</text><text x="1185.6" y="1113.95" font-family="Manrope, Segoe UI, sans-serif" font-size="10" font-weight="400" fill="rgb(23, 99, 77)">#HD-8472</text><text x="1347.69" y="1071.23" font-family="Manrope, Segoe UI, sans-serif" font-size="9" font-weight="400" fill="rgb(102, 115, 108)">12:00</text><rect x="1145.6" y="1130.15" width="224.4" height="80.4" rx="0" fill="none" stroke="rgb(237, 240, 233)" stroke-width="0.8"/><rect x="1145.6" y="1141.95" width="29" height="29" rx="8" fill="rgb(233, 243, 237)"/><svg x="1153.1" y="1149.45" width="14" height="14" viewBox="0 0 24 24" fill="none" stroke="rgb(23, 99, 77)" stroke-width="1.7" stroke-linecap="round" stroke-linejoin="round"><path d="M20 7V2l-4 4M4 17v5l4-4M20 7A9 9 0 0 0 4 5m0 12a9 9 0 0 0 16 2"></path></svg><text x="1185.6" y="1156.27" font-family="Manrope, Segoe UI, sans-serif" font-size="11" font-weight="700" fill="rgb(37, 53, 46)">Agent yechim taklif qildi.</text><text x="1185.6" y="1177.07" font-family="Manrope, Segoe UI, sans-serif" font-size="11" font-weight="700" fill="rgb(37, 53, 46)">Mijoz tasdig‘i kutilmoqda.</text><text x="1185.6" y="1194.35" font-family="Manrope, Segoe UI, sans-serif" font-size="10" font-weight="400" fill="rgb(23, 99, 77)">#HD-8482</text><text x="1348.43" y="1151.63" font-family="Manrope, Segoe UI, sans-serif" font-size="9" font-weight="400" fill="rgb(102, 115, 108)">15:53</text><rect x="1145.6" y="1210.55" width="224.4" height="101.2" rx="0" fill="none" stroke="rgb(237, 240, 233)" stroke-width="0.8"/><rect x="1145.6" y="1222.35" width="29" height="29" rx="8" fill="rgb(233, 243, 237)"/><svg x="1153.1" y="1229.85" width="14" height="14" viewBox="0 0 24 24" fill="none" stroke="rgb(23, 99, 77)" stroke-width="1.7" stroke-linecap="round" stroke-linejoin="round"><path d="M20 7V2l-4 4M4 17v5l4-4M20 7A9 9 0 0 0 4 5m0 12a9 9 0 0 0 16 2"></path></svg><text x="1185.6" y="1236.67" font-family="Manrope, Segoe UI, sans-serif" font-size="11" font-weight="700" fill="rgb(37, 53, 46)">Mijoz murojaatni qayta</text><text x="1185.6" y="1257.47" font-family="Manrope, Segoe UI, sans-serif" font-size="11" font-weight="700" fill="rgb(37, 53, 46)">ochdi: muammo hal</text><text x="1185.6" y="1278.27" font-family="Manrope, Segoe UI, sans-serif" font-size="11" font-weight="700" fill="rgb(37, 53, 46)">bo‘lmadi.</text><text x="1185.6" y="1295.55" font-family="Manrope, Segoe UI, sans-serif" font-size="10" font-weight="400" fill="rgb(23, 99, 77)">#HD-8485</text><text x="1347.22" y="1232.03" font-family="Manrope, Segoe UI, sans-serif" font-size="9" font-weight="400" fill="rgb(102, 115, 108)">09:10</text><svg x="258" y="1355.75" width="12" height="12" viewBox="0 0 24 24" fill="none" stroke="rgb(102, 115, 108)" stroke-width="1.7" stroke-linecap="round" stroke-linejoin="round"><path d="m12 2 9 4v6c0 5-5 8-9 10-4-2-9-5-9-10V6l9-4zM8 12l3 3 5-6"></path></svg><text x="276" y="1364.23" font-family="Manrope, Segoe UI, sans-serif" font-size="9" font-weight="400" fill="rgb(102, 115, 108)">Yordam · Har bir murojaat e’tiborda.</text><text x="1194.83" y="1364.23" font-family="Manrope, Segoe UI, sans-serif" font-size="9" font-weight="400" fill="rgb(102, 115, 108)">Interaktiv dizayn prototipi · Orzuqulov Davlatbek</text></svg>