<svg xmlns="http://www.w3.org/2000/svg" width="1440" height="1034" viewBox="0 0 1440 1034"><title>Javobsiz murojaatlar — Yordam</title><rect width="1440" height="1034" fill="#F7F8F4"/><rect x="0" y="0" width="1424.8" height="1033.55" rx="0" fill="rgb(247, 248, 244)"/><rect x="0" y="0" width="224" height="1000" rx="0" fill="rgb(255, 255, 255)"/><rect x="29.5" y="28.7" width="39" height="39" rx="11" fill="rgb(23, 99, 77)"/><svg x="37.5" y="36.7" width="23" height="23" viewBox="0 0 24 24" fill="none" stroke="rgb(255, 255, 255)" stroke-width="1.7" stroke-linecap="round" stroke-linejoin="round"><path d="M4 14v-3a8 8 0 0 1 16 0v3M4 12H3v6h4v-6H4m16 0h1v6h-4v-6h3M17 18v2h-5"></path></svg><text x="77" y="55.48" font-family="Manrope, Segoe UI, sans-serif" font-size="24" font-weight="800" fill="rgb(23, 99, 77)" letter-spacing="-1px">yordam</text><text x="169.88" y="55.48" font-family="Manrope, Segoe UI, sans-serif" font-size="24" font-weight="800" fill="rgb(130, 160, 113)" letter-spacing="-1px">.</text><rect x="18" y="96.4" width="187.2" height="55.6" rx="9" fill="none" stroke="rgb(228, 232, 226)" stroke-width="0.8"/><rect x="29.8" y="109.7" width="29" height="29" rx="6" fill="rgb(237, 240, 230)"/><svg x="34.8" y="114.7" width="19" height="19" viewBox="0 0 24 24" fill="none" stroke="rgb(102, 116, 74)" stroke-width="1.7" stroke-linecap="round" stroke-linejoin="round"><path d="M2 5h8l2 3h10v13H2V5z"></path></svg><text x="68.8" y="120.6" font-family="Manrope, Segoe UI, sans-serif" font-size="10" font-weight="700" fill="rgb(37, 53, 46)">Qo‘llab-quvvatlash</text><text x="68.8" y="135.48" font-family="Manrope, Segoe UI, sans-serif" font-size="9" font-weight="400" fill="rgb(102, 115, 108)">Smart Trading jamoasi</text><svg x="174.4" y="114.7" width="19" height="19" viewBox="0 0 24 24" fill="none" stroke="rgb(37, 53, 46)" stroke-width="1.7" stroke-linecap="round" stroke-linejoin="round"><path d="m6 9 6 6 6-6"></path></svg><text x="31" y="187.68" font-family="Manrope, Segoe UI, sans-serif" font-size="9" font-weight="800" fill="rgb(102, 115, 108)" letter-spacing="1.5px">ISH MAYDONI</text><svg x="31" y="214.9" width="19" height="19" viewBox="0 0 24 24" fill="none" stroke="rgb(99, 112, 103)" stroke-width="1.7" stroke-linecap="round" stroke-linejoin="round"><path d="M3 3h7v7H3zM14 3h7v7h-7zM3 14h7v7H3zM14 14h7v7h-7z"></path></svg><text x="62" y="227.84" font-family="Manrope, Segoe UI, sans-serif" font-size="12" font-weight="600" fill="rgb(99, 112, 103)">Bosh sahifa</text><rect x="18" y="251.4" width="187.2" height="44" rx="8" fill="rgb(233, 243, 237)"/><svg x="31" y="263.9" width="19" height="19" viewBox="0 0 24 24" fill="none" stroke="rgb(23, 99, 77)" stroke-width="1.7" stroke-linecap="round" stroke-linejoin="round"><path d="M4 4h16l2 13v3H2v-3L4 4zM3 14h5l2 3h4l2-3h5"></path></svg><text x="62" y="276.84" font-family="Manrope, Segoe UI, sans-serif" font-size="12" font-weight="800" fill="rgb(23, 99, 77)">Murojaatlar</text><rect x="171.98" y="264.4" width="20.23" height="18" rx="5" fill="rgb(211, 232, 218)"/><text x="178.98" y="276.2" font-family="Manrope, Segoe UI, sans-serif" font-size="10" font-weight="800" fill="rgb(36, 97, 71)">6</text><rect x="18" y="300.4" width="187.2" height="58.4" rx="8" fill="rgb(233, 243, 237)"/><svg x="31" y="320.1" width="19" height="19" viewBox="0 0 24 24" fill="none" stroke="rgb(23, 99, 77)" stroke-width="1.7" stroke-linecap="round" stroke-linejoin="round"><path d="M21 4H3v13h5l4 4v-4h9V4zM7 8h10M7 12h6"></path></svg><text x="62" y="323.44" font-family="Manrope, Segoe UI, sans-serif" font-size="12" font-weight="800" fill="rgb(23, 99, 77)">Javobsiz</text><text x="62" y="342.64" font-family="Manrope, Segoe UI, sans-serif" font-size="12" font-weight="800" fill="rgb(23, 99, 77)">murojaatlar</text><rect x="172.3" y="320.6" width="19.9" height="18" rx="5" fill="rgb(211, 232, 218)"/><text x="179.3" y="332.4" font-family="Manrope, Segoe UI, sans-serif" font-size="10" font-weight="800" fill="rgb(36, 97, 71)">5</text><svg x="31" y="376.3" width="19" height="19" viewBox="0 0 24 24" fill="none" stroke="rgb(99, 112, 103)" stroke-width="1.7" stroke-linecap="round" stroke-linejoin="round"><path d="M4 3v18h17M8 16v-5m5 5V7m5 9V3"></path></svg><text x="62" y="389.24" font-family="Manrope, Segoe UI, sans-serif" font-size="12" font-weight="600" fill="rgb(99, 112, 103)">Hisobotlar</text><svg x="31" y="425.3" width="19" height="19" viewBox="0 0 24 24" fill="none" stroke="rgb(99, 112, 103)" stroke-width="1.7" stroke-linecap="round" stroke-linejoin="round"><path d="M16 21v-3c0-3-2-4-5-4H7c-3 0-5 1-5 4v3M15 3a4 4 0 0 1 0 8m4 3c2 1 3 2 3 4v3M12 7a4 4 0 1 1-8 0 4 4 0 0 1 8 0z"></path></svg><text x="62" y="438.24" font-family="Manrope, Segoe UI, sans-serif" font-size="12" font-weight="600" fill="rgb(99, 112, 103)">Jamoa</text><text x="31" y="496.48" font-family="Manrope, Segoe UI, sans-serif" font-size="9" font-weight="800" fill="rgb(102, 115, 108)" letter-spacing="1.5px">RESURSLAR</text><svg x="31" y="523.7" width="19" height="19" viewBox="0 0 24 24" fill="none" stroke="rgb(99, 112, 103)" stroke-width="1.7" stroke-linecap="round" stroke-linejoin="round"><path d="M12 5C8 2 5 3 2 4v15c3-1 6-2 10 1 4-3 7-2 10-1V4c-3-1-6-2-10 1zm0 0v15"></path></svg><text x="62" y="536.64" font-family="Manrope, Segoe UI, sans-serif" font-size="12" font-weight="600" fill="rgb(99, 112, 103)">Bilimlar bazasi</text><svg x="31" y="572.7" width="19" height="19" viewBox="0 0 24 24" fill="none" stroke="rgb(99, 112, 103)" stroke-width="1.7" stroke-linecap="round" stroke-linejoin="round"><path d="M12 8v5l3 2M21 12a9 9 0 1 1-18 0 9 9 0 0 1 18 0z"></path></svg><text x="62" y="585.64" font-family="Manrope, Segoe UI, sans-serif" font-size="12" font-weight="600" fill="rgb(99, 112, 103)">SLA qoidalari</text><svg x="31" y="621.7" width="19" height="19" viewBox="0 0 24 24" fill="none" stroke="rgb(99, 112, 103)" stroke-width="1.7" stroke-linecap="round" stroke-linejoin="round"><path d="M2 5h8l2 3h10v13H2V5z"></path></svg><text x="62" y="634.64" font-family="Manrope, Segoe UI, sans-serif" font-size="12" font-weight="600" fill="rgb(99, 112, 103)">Loyiha materiallari</text><rect x="18" y="717" width="187.2" height="194" rx="11" fill="rgb(246, 248, 242)"/><rect x="18" y="717" width="187.2" height="194" rx="11" fill="none" stroke="rgb(229, 235, 219)" stroke-width="0.8"/><svg x="34.8" y="733.8" width="26" height="26" viewBox="0 0 24 24" fill="none" stroke="rgb(23, 99, 77)" stroke-width="1.7" stroke-linecap="round" stroke-linejoin="round"><path d="m12 2 9 4v6c0 5-5 8-9 10-4-2-9-5-9-10V6l9-4zM8 12l3 3 5-6"></path></svg><text x="34.8" y="786.44" font-family="Manrope, Segoe UI, sans-serif" font-size="12" font-weight="700" fill="rgb(37, 53, 46)">Har bir javob muhim</text><text x="34.8" y="807.4" font-family="Manrope, Segoe UI, sans-serif" font-size="10" font-weight="400" fill="rgb(102, 115, 108)">Ichki izohlar faqat jamoangizga</text><text x="34.8" y="823.4" font-family="Manrope, Segoe UI, sans-serif" font-size="10" font-weight="400" fill="rgb(102, 115, 108)">ko‘rinadi.</text><rect x="34.8" y="840.6" width="153.6" height="53.6" rx="8" fill="rgb(255, 255, 255)"/><rect x="34.8" y="840.6" width="153.6" height="53.6" rx="8" fill="none" stroke="rgb(228, 232, 226)" stroke-width="0.8"/><text x="46.46" y="870.2" font-family="Manrope, Segoe UI, sans-serif" font-size="10" font-weight="700" fill="rgb(23, 99, 77)">Xavfsiz javob yozish</text><svg x="150.75" y="850.4" width="26" height="26" viewBox="0 0 24 24" fill="none" stroke="rgb(23, 99, 77)" stroke-width="1.7" stroke-linecap="round" stroke-linejoin="round"><path d="M4 12h16m-6-6 6 6-6 6"></path></svg><rect x="18" y="929" width="187.2" height="53" rx="0" fill="none" stroke="rgb(228, 232, 226)" stroke-width="0.8"/><rect x="23" y="947.9" width="33" height="33" rx="50" fill="rgb(219, 236, 224)"/><text x="31.3" y="967.52" font-family="Manrope, Segoe UI, sans-serif" font-size="11" font-weight="800" fill="rgb(23, 99, 77)">MY</text><text x="65" y="961.12" font-family="Manrope, Segoe UI, sans-serif" font-size="11" font-weight="700" fill="rgb(37, 53, 46)">Malika Yusupova</text><text x="65" y="977.28" font-family="Manrope, Segoe UI, sans-serif" font-size="9" font-weight="400" fill="rgb(23, 99, 77)">●</text><text x="70.44" y="977.28" font-family="Manrope, Segoe UI, sans-serif" font-size="9" font-weight="400" fill="rgb(102, 115, 108)"> Agent · onlayn</text><svg x="184.2" y="954.9" width="16" height="19" viewBox="0 0 24 24" fill="none" stroke="rgb(124, 133, 126)" stroke-width="1.7" stroke-linecap="round" stroke-linejoin="round"><path d="m6 9 6 6 6-6"></path></svg><rect x="224" y="0" width="1200.8" height="76" rx="0" fill="rgba(255, 255, 255, 0.72)"/><text x="258" y="40.72" font-family="Manrope, Segoe UI, sans-serif" font-size="11" font-weight="400" fill="rgb(102, 115, 108)">Ish maydoni</text><text x="326.9" y="40.72" font-family="Manrope, Segoe UI, sans-serif" font-size="11" font-weight="400" fill="rgb(102, 115, 108)">/</text><text x="340.16" y="40.72" font-family="Manrope, Segoe UI, sans-serif" font-size="11" font-weight="600" fill="rgb(60, 74, 65)">Javobsiz murojaatlar</text><text x="933.23" y="40.4" font-family="Manrope, Segoe UI, sans-serif" font-size="10" font-weight="400" fill="rgb(102, 115, 108)">3-oktabr, 2026 · Shanba</text><rect x="1055.83" y="14.8" width="233.98" height="45.6" rx="8" fill="rgb(247, 248, 244)"/><rect x="1055.83" y="14.8" width="233.98" height="45.6" rx="8" fill="none" stroke="rgb(228, 232, 226)" stroke-width="0.8"/><rect x="1060.63" y="19.6" width="83.05" height="36" rx="5" fill="rgb(255, 255, 255)"/><text x="1071.63" y="40.4" font-family="Manrope, Segoe UI, sans-serif" font-size="10" font-weight="700" fill="rgb(23, 99, 77)">Agent paneli</text><text x="1157.68" y="40.4" font-family="Manrope, Segoe UI, sans-serif" font-size="10" font-weight="700" fill="rgb(102, 115, 108)">Mijoz portali</text><text x="1242.26" y="40.4" font-family="Manrope, Segoe UI, sans-serif" font-size="10" font-weight="700" fill="rgb(102, 115, 108)">Loyiha</text><rect x="1303.8" y="17.6" width="40" height="40" rx="9" fill="rgb(255, 255, 255)"/><rect x="1303.8" y="17.6" width="40" height="40" rx="9" fill="none" stroke="rgb(228, 232, 226)" stroke-width="0.8"/><svg x="1314.3" y="28.1" width="19" height="19" viewBox="0 0 24 24" fill="none" stroke="rgb(23, 99, 77)" stroke-width="1.7" stroke-linecap="round" stroke-linejoin="round"><path d="M18 8a6 6 0 0 0-12 0v7l-2 3h16l-2-3V8M10 21h4"></path></svg><rect x="1326" y="28.4" width="6" height="6" rx="50" fill="rgb(212, 120, 88)"/><rect x="1326" y="28.4" width="6" height="6" rx="50" fill="none" stroke="rgb(255, 255, 255)" stroke-width="0.8"/><rect x="1357.8" y="21.1" width="33" height="33" rx="50" fill="rgb(219, 236, 224)"/><text x="1366.1" y="40.72" font-family="Manrope, Segoe UI, sans-serif" font-size="11" font-weight="800" fill="rgb(23, 99, 77)">MY</text><text x="258" y="133.48" font-family="Manrope, Segoe UI, sans-serif" font-size="29" font-weight="800" fill="rgb(37, 53, 46)" letter-spacing="-1.1px">Javobsiz murojaatlar</text><text x="258" y="164.19" font-family="Manrope, Segoe UI, sans-serif" font-size="12" font-weight="400" fill="rgb(102, 115, 108)">Navbatni saralang, javob muddatini kuzating va mijozga yordam bering.</text><rect x="1216.6" y="116.18" width="174.2" height="43" rx="8" fill="rgb(255, 255, 255)"/><rect x="1216.6" y="116.18" width="174.2" height="43" rx="8" fill="none" stroke="rgb(228, 232, 226)" stroke-width="0.8"/><svg x="1233.4" y="128.18" width="19" height="19" viewBox="0 0 24 24" fill="none" stroke="rgb(23, 99, 77)" stroke-width="1.7" stroke-linecap="round" stroke-linejoin="round"><path d="M4 3v18h17M8 16v-5m5 5V7m5 9V3"></path></svg><text x="1260.4" y="141.12" font-family="Manrope, Segoe UI, sans-serif" font-size="12" font-weight="700" fill="rgb(23, 99, 77)">Hisobotlarni ko‘rish</text><rect x="258" y="195.35" width="270.45" height="147" rx="14" fill="rgb(23, 99, 77)"/><rect x="258" y="195.35" width="270.45" height="147" rx="14" fill="none" stroke="rgb(23, 99, 77)" stroke-width="0.8"/><text x="278.8" y="234.27" font-family="Manrope, Segoe UI, sans-serif" font-size="11" font-weight="600" fill="rgb(224, 238, 229)">Ochiq murojaatlar</text><rect x="473.65" y="214.15" width="34" height="34" rx="9" fill="rgba(255, 255, 255, 0.086)"/><svg x="481.65" y="221.65" width="18" height="19" viewBox="0 0 24 24" fill="none" stroke="rgb(220, 234, 216)" stroke-width="1.7" stroke-linecap="round" stroke-linejoin="round"><path d="M4 4h16l2 13v3H2v-3L4 4zM3 14h5l2 3h4l2-3h5"></path></svg><text x="278.8" y="287.99" font-family="Manrope, Segoe UI, sans-serif" font-size="32" font-weight="800" fill="rgb(255, 255, 255)" letter-spacing="-1px">06</text><svg x="278.8" y="310.35" width="12" height="12" viewBox="0 0 24 24" fill="none" stroke="rgb(215, 232, 222)" stroke-width="1.7" stroke-linecap="round" stroke-linejoin="round"><path d="M4 12h16m-6-6 6 6-6 6"></path></svg><text x="296.8" y="318.83" font-family="Manrope, Segoe UI, sans-serif" font-size="9" font-weight="400" fill="rgb(215, 232, 222)">Jamoaning joriy navbati</text><rect x="545.45" y="195.35" width="270.45" height="147" rx="14" fill="rgb(255, 255, 255)"/><rect x="545.45" y="195.35" width="270.45" height="147" rx="14" fill="none" stroke="rgb(228, 232, 226)" stroke-width="0.8"/><text x="566.25" y="234.27" font-family="Manrope, Segoe UI, sans-serif" font-size="11" font-weight="600" fill="rgb(102, 115, 108)">Javob kutilmoqda</text><rect x="761.1" y="214.15" width="34" height="34" rx="9" fill="rgb(242, 245, 238)"/><svg x="769.1" y="221.65" width="18" height="19" viewBox="0 0 24 24" fill="none" stroke="rgb(104, 125, 87)" stroke-width="1.7" stroke-linecap="round" stroke-linejoin="round"><path d="M21 4H3v13h5l4 4v-4h9V4zM7 8h10M7 12h6"></path></svg><text x="566.25" y="287.99" font-family="Manrope, Segoe UI, sans-serif" font-size="32" font-weight="800" fill="rgb(37, 53, 46)" letter-spacing="-1px">05</text><svg x="566.25" y="310.35" width="12" height="12" viewBox="0 0 24 24" fill="none" stroke="rgb(102, 115, 108)" stroke-width="1.7" stroke-linecap="round" stroke-linejoin="round"><path d="M4 12h16m-6-6 6 6-6 6"></path></svg><text x="584.25" y="318.83" font-family="Manrope, Segoe UI, sans-serif" font-size="9" font-weight="400" fill="rgb(102, 115, 108)">Mijozga javob berish kerak</text><rect x="832.9" y="195.35" width="270.45" height="147" rx="14" fill="rgb(255, 255, 255)"/><rect x="832.9" y="195.35" width="270.45" height="147" rx="14" fill="none" stroke="rgb(228, 232, 226)" stroke-width="0.8"/><text x="853.7" y="234.27" font-family="Manrope, Segoe UI, sans-serif" font-size="11" font-weight="600" fill="rgb(102, 115, 108)">Javob muddati kechikkan</text><rect x="1048.55" y="214.15" width="34" height="34" rx="9" fill="rgb(242, 245, 238)"/><svg x="1056.55" y="221.65" width="18" height="19" viewBox="0 0 24 24" fill="none" stroke="rgb(104, 125, 87)" stroke-width="1.7" stroke-linecap="round" stroke-linejoin="round"><path d="M12 8v5l3 2M21 12a9 9 0 1 1-18 0 9 9 0 0 1 18 0z"></path></svg><text x="853.7" y="287.99" font-family="Manrope, Segoe UI, sans-serif" font-size="32" font-weight="800" fill="rgb(37, 53, 46)" letter-spacing="-1px">02</text><svg x="853.7" y="310.35" width="12" height="12" viewBox="0 0 24 24" fill="none" stroke="rgb(102, 115, 108)" stroke-width="1.7" stroke-linecap="round" stroke-linejoin="round"><path d="M12 8v5m0 3v.1M10 3 2 18c-.5 1 .2 2 1.3 2h17.4c1.1 0 1.8-1 1.3-2L14 3c-.7-1.2-3.3-1.2-4 0z"></path></svg><text x="871.7" y="318.83" font-family="Manrope, Segoe UI, sans-serif" font-size="9" font-weight="400" fill="rgb(177, 59, 50)">Birinchi navbatda ko‘rib chiqing</text><rect x="1120.35" y="195.35" width="270.45" height="147" rx="14" fill="rgb(255, 255, 255)"/><rect x="1120.35" y="195.35" width="270.45" height="147" rx="14" fill="none" stroke="rgb(228, 232, 226)" stroke-width="0.8"/><text x="1141.15" y="234.27" font-family="Manrope, Segoe UI, sans-serif" font-size="11" font-weight="600" fill="rgb(102, 115, 108)">Yechim berilgan</text><rect x="1336" y="214.15" width="34" height="34" rx="9" fill="rgb(242, 245, 238)"/><svg x="1344" y="221.65" width="18" height="19" viewBox="0 0 24 24" fill="none" stroke="rgb(104, 125, 87)" stroke-width="1.7" stroke-linecap="round" stroke-linejoin="round"><path d="M8 12l3 3 5-6M21 12a9 9 0 1 1-18 0 9 9 0 0 1 18 0z"></path></svg><text x="1141.15" y="287.99" font-family="Manrope, Segoe UI, sans-serif" font-size="32" font-weight="800" fill="rgb(37, 53, 46)" letter-spacing="-1px">02</text><svg x="1141.15" y="310.35" width="12" height="12" viewBox="0 0 24 24" fill="none" stroke="rgb(102, 115, 108)" stroke-width="1.7" stroke-linecap="round" stroke-linejoin="round"><path d="M4 12h16m-6-6 6 6-6 6"></path></svg><text x="1159.15" y="318.83" font-family="Manrope, Segoe UI, sans-serif" font-size="9" font-weight="400" fill="rgb(102, 115, 108)">Tasdiqlangan va tasdiq kutilayotgan</text><rect x="258" y="366.35" width="1132.8" height="605.8" rx="14" fill="rgb(255, 255, 255)"/><rect x="258" y="366.35" width="1132.8" height="605.8" rx="14" fill="none" stroke="rgb(228, 232, 226)" stroke-width="0.8"/><text x="279.8" y="401.83" font-family="Manrope, Segoe UI, sans-serif" font-size="14" font-weight="800" fill="rgb(37, 53, 46)" letter-spacing="-0.35px">Murojaatlar navbati</text><text x="279.8" y="422.35" font-family="Manrope, Segoe UI, sans-serif" font-size="10" font-weight="400" fill="rgb(102, 115, 108)">Mijozlarning so‘rovlari va javob muddati</text><text x="1159.15" y="409.97" font-family="Manrope, Segoe UI, sans-serif" font-size="11" font-weight="400" fill="rgb(102, 115, 108)">Tartib:</text><rect x="1201.8" y="389.65" width="167.2" height="34.4" rx="6" fill="rgb(255, 255, 255)"/><rect x="1201.8" y="389.65" width="167.2" height="34.4" rx="6" fill="none" stroke="rgb(228, 232, 226)" stroke-width="0.8"/><text x="1209.8" y="407.55" font-family="Manrope, Segoe UI, sans-serif" font-size="11" font-weight="400" fill="rgb(0, 0, 0)">Kechikkanlar va ustuvorlik</text><text x="290.6" y="469.35" font-family="Manrope, Segoe UI, sans-serif" font-size="10" font-weight="600" fill="rgb(102, 115, 108)">Yopilmagan</text><rect x="351.64" y="459.35" width="14.9" height="14.4" rx="4" fill="rgb(237, 240, 235)"/><text x="356.64" y="469.03" font-family="Manrope, Segoe UI, sans-serif" font-size="9" font-weight="900" fill="rgb(102, 115, 108)">7</text><text x="393.14" y="469.35" font-family="Manrope, Segoe UI, sans-serif" font-size="10" font-weight="600" fill="rgb(102, 115, 108)">Meniki</text><rect x="430.14" y="459.35" width="15.44" height="14.4" rx="4" fill="rgb(237, 240, 235)"/><text x="435.14" y="469.03" font-family="Manrope, Segoe UI, sans-serif" font-size="9" font-weight="900" fill="rgb(102, 115, 108)">2</text><rect x="461.38" y="446.55" width="85.3" height="40" rx="7" fill="rgb(233, 243, 237)"/><rect x="461.38" y="446.55" width="85.3" height="40" rx="7" fill="none" stroke="rgb(220, 234, 222)" stroke-width="0.8"/><text x="472.18" y="469.35" font-family="Manrope, Segoe UI, sans-serif" font-size="10" font-weight="800" fill="rgb(23, 99, 77)">Javobsiz</text><rect x="520.56" y="459.35" width="15.31" height="14.4" rx="4" fill="rgb(214, 231, 216)"/><text x="525.56" y="469.03" font-family="Manrope, Segoe UI, sans-serif" font-size="9" font-weight="900" fill="rgb(23, 99, 77)">5</text><text x="562.48" y="469.35" font-family="Manrope, Segoe UI, sans-serif" font-size="10" font-weight="600" fill="rgb(102, 115, 108)">Kechikkan</text><rect x="617.15" y="459.35" width="15.44" height="14.4" rx="4" fill="rgb(237, 240, 235)"/><text x="622.15" y="469.03" font-family="Manrope, Segoe UI, sans-serif" font-size="9" font-weight="900" fill="rgb(102, 115, 108)">2</text><text x="659.19" y="469.35" font-family="Manrope, Segoe UI, sans-serif" font-size="10" font-weight="600" fill="rgb(102, 115, 108)">Yopilgan</text><rect x="705.71" y="459.35" width="14.09" height="14.4" rx="4" fill="rgb(237, 240, 235)"/><text x="710.71" y="469.03" font-family="Manrope, Segoe UI, sans-serif" font-size="9" font-weight="900" fill="rgb(102, 115, 108)">1</text><svg x="1175" y="457.05" width="16" height="19" viewBox="0 0 24 24" fill="none" stroke="rgb(123, 135, 126)" stroke-width="1.7" stroke-linecap="round" stroke-linejoin="round"><path d="M21 21l-5-5M18 10a8 8 0 1 1-16 0 8 8 0 0 1 16 0z"></path></svg><rect x="1164" y="448.55" width="205" height="36" rx="7" fill="rgb(255, 255, 255)"/><rect x="1164" y="448.55" width="205" height="36" rx="7" fill="none" stroke="rgb(228, 232, 226)" stroke-width="0.8"/><text x="1198" y="464.55" font-family="Manrope, Segoe UI, sans-serif" font-size="10" font-weight="400" fill="rgb(0, 0, 0)">Murojaatni qidirish…</text><rect x="258.8" y="501.55" width="1131.2" height="38.8" rx="0" fill="rgb(243, 247, 240)"/><rect x="258.8" y="501.55" width="1131.2" height="38.8" rx="0" fill="none" stroke="rgb(228, 232, 226)" stroke-width="0.8"/><text x="279.8" y="524.15" font-family="Manrope, Segoe UI, sans-serif" font-size="10" font-weight="400" fill="rgb(23, 99, 77)">Faqat mijozning oxirgi xabariga ommaviy javob berilmagan murojaatlar. Ichki izoh javob hisoblanmaydi.</text><rect x="258.8" y="540.75" width="314.71" height="37.2" rx="0" fill="rgb(250, 251, 248)"/><rect x="258.8" y="540.75" width="314.71" height="37.2" rx="0" fill="none" stroke="rgb(228, 232, 226)" stroke-width="0.8"/><text x="279.8" y="561.83" font-family="Manrope, Segoe UI, sans-serif" font-size="9" font-weight="700" fill="rgb(102, 115, 108)">Murojaat</text><rect x="573.51" y="540.75" width="199.05" height="37.2" rx="0" fill="rgb(250, 251, 248)"/><rect x="573.51" y="540.75" width="199.05" height="37.2" rx="0" fill="none" stroke="rgb(228, 232, 226)" stroke-width="0.8"/><text x="586.51" y="561.83" font-family="Manrope, Segoe UI, sans-serif" font-size="9" font-weight="700" fill="rgb(102, 115, 108)">Mijoz</text><rect x="772.56" y="540.75" width="166.24" height="37.2" rx="0" fill="rgb(250, 251, 248)"/><rect x="772.56" y="540.75" width="166.24" height="37.2" rx="0" fill="none" stroke="rgb(228, 232, 226)" stroke-width="0.8"/><text x="785.56" y="561.83" font-family="Manrope, Segoe UI, sans-serif" font-size="9" font-weight="700" fill="rgb(102, 115, 108)">Holat</text><rect x="938.8" y="540.75" width="143.84" height="37.2" rx="0" fill="rgb(250, 251, 248)"/><rect x="938.8" y="540.75" width="143.84" height="37.2" rx="0" fill="none" stroke="rgb(228, 232, 226)" stroke-width="0.8"/><text x="951.8" y="561.83" font-family="Manrope, Segoe UI, sans-serif" font-size="9" font-weight="700" fill="rgb(102, 115, 108)">Ustuvorlik</text><rect x="1082.64" y="540.75" width="120.05" height="37.2" rx="0" fill="rgb(250, 251, 248)"/><rect x="1082.64" y="540.75" width="120.05" height="37.2" rx="0" fill="none" stroke="rgb(228, 232, 226)" stroke-width="0.8"/><text x="1095.64" y="561.83" font-family="Manrope, Segoe UI, sans-serif" font-size="9" font-weight="700" fill="rgb(102, 115, 108)">Mas’ul</text><rect x="1202.69" y="540.75" width="187.31" height="37.2" rx="0" fill="rgb(250, 251, 248)"/><rect x="1202.69" y="540.75" width="187.31" height="37.2" rx="0" fill="none" stroke="rgb(228, 232, 226)" stroke-width="0.8"/><text x="1215.69" y="561.83" font-family="Manrope, Segoe UI, sans-serif" font-size="9" font-weight="700" fill="rgb(102, 115, 108)">Javob muddati</text><text x="279.8" y="606.39" font-family="Manrope, Segoe UI, sans-serif" font-size="12" font-weight="700" fill="rgb(37, 53, 46)">Shaxsiy kabinetga kira olmayapman</text><rect x="279.8" y="621.95" width="5" height="5" rx="50" fill="rgb(23, 99, 77)"/><text x="289.8" y="626.23" font-family="Manrope, Segoe UI, sans-serif" font-size="9" font-weight="400" fill="rgb(102, 115, 108)">#HD-8495  ·  Hisob</text><rect x="586.51" y="598.15" width="28" height="28" rx="50" fill="rgb(235, 230, 247)"/><text x="594.48" y="614.63" font-family="Manrope, Segoe UI, sans-serif" font-size="9" font-weight="800" fill="rgb(99, 86, 139)">NT</text><text x="624.51" y="614.95" font-family="Manrope, Segoe UI, sans-serif" font-size="10" font-weight="400" fill="rgb(37, 53, 46)">Nodira Toshmatova</text><rect x="785.56" y="600.15" width="54.3" height="24" rx="6" fill="rgb(234, 240, 250)"/><rect x="793.56" y="609.15" width="6" height="6" rx="50" fill="rgb(52, 90, 153)"/><text x="805.56" y="614.95" font-family="Manrope, Segoe UI, sans-serif" font-size="10" font-weight="700" fill="rgb(52, 90, 153)">Yangi</text><svg x="951.8" y="600.25" width="19" height="19" viewBox="0 0 24 24" fill="none" stroke="rgb(177, 59, 50)" stroke-width="1.7" stroke-linecap="round" stroke-linejoin="round"><path d="M4 3v18h17M8 16v-5m5 5V7m5 9V3"></path></svg><text x="976.8" y="612.87" font-family="Manrope, Segoe UI, sans-serif" font-size="11" font-weight="400" fill="rgb(177, 59, 50)">Shoshilinch</text><rect x="1095.64" y="599.15" width="26" height="26" rx="50" fill="rgb(219, 236, 224)"/><text x="1102.75" y="614.63" font-family="Manrope, Segoe UI, sans-serif" font-size="9" font-weight="800" fill="rgb(23, 99, 77)">SB</text><text x="1127.64" y="615.27" font-family="Manrope, Segoe UI, sans-serif" font-size="11" font-weight="400" fill="rgb(37, 53, 46)">Sardor</text><svg x="1215.69" y="606.15" width="12" height="12" viewBox="0 0 24 24" fill="none" stroke="rgb(177, 59, 50)" stroke-width="1.7" stroke-linecap="round" stroke-linejoin="round"><path d="M12 8v5m0 3v.1M10 3 2 18c-.5 1 .2 2 1.3 2h17.4c1.1 0 1.8-1 1.3-2L14 3c-.7-1.2-3.3-1.2-4 0z"></path></svg><text x="1230.69" y="615.75" font-family="Manrope, Segoe UI, sans-serif" font-size="10" font-weight="700" fill="rgb(177, 59, 50)">Kechikkan · 34 daq</text><text x="279.8" y="674.79" font-family="Manrope, Segoe UI, sans-serif" font-size="12" font-weight="700" fill="rgb(37, 53, 46)">To‘lov o‘tdi, balans to‘ldirilmadi</text><rect x="279.8" y="690.35" width="5" height="5" rx="50" fill="rgb(23, 99, 77)"/><text x="289.8" y="694.63" font-family="Manrope, Segoe UI, sans-serif" font-size="9" font-weight="400" fill="rgb(102, 115, 108)">#HD-8492  ·  To‘lovlar</text><rect x="586.51" y="666.55" width="28" height="28" rx="50" fill="rgb(219, 236, 224)"/><text x="594.41" y="683.03" font-family="Manrope, Segoe UI, sans-serif" font-size="9" font-weight="800" fill="rgb(23, 99, 77)">AR</text><text x="624.51" y="683.35" font-family="Manrope, Segoe UI, sans-serif" font-size="10" font-weight="400" fill="rgb(37, 53, 46)">Azizbek Rahimov</text><rect x="785.56" y="668.55" width="77.78" height="24" rx="6" fill="rgb(247, 239, 220)"/><rect x="793.56" y="677.55" width="6" height="6" rx="50" fill="rgb(133, 84, 18)"/><text x="805.56" y="683.35" font-family="Manrope, Segoe UI, sans-serif" font-size="10" font-weight="700" fill="rgb(133, 84, 18)">Jarayonda</text><svg x="951.8" y="668.65" width="19" height="19" viewBox="0 0 24 24" fill="none" stroke="rgb(171, 101, 34)" stroke-width="1.7" stroke-linecap="round" stroke-linejoin="round"><path d="M4 3v18h17M8 16v-5m5 5V7m5 9V3"></path></svg><text x="976.8" y="681.27" font-family="Manrope, Segoe UI, sans-serif" font-size="11" font-weight="400" fill="rgb(171, 101, 34)">Yuqori</text><rect x="1095.64" y="667.55" width="26" height="26" rx="50" fill="rgb(219, 236, 224)"/><text x="1101.93" y="683.03" font-family="Manrope, Segoe UI, sans-serif" font-size="9" font-weight="800" fill="rgb(23, 99, 77)">MY</text><text x="1127.64" y="683.67" font-family="Manrope, Segoe UI, sans-serif" font-size="11" font-weight="400" fill="rgb(37, 53, 46)">Malika</text><svg x="1215.69" y="674.55" width="12" height="12" viewBox="0 0 24 24" fill="none" stroke="rgb(177, 59, 50)" stroke-width="1.7" stroke-linecap="round" stroke-linejoin="round"><path d="M12 8v5m0 3v.1M10 3 2 18c-.5 1 .2 2 1.3 2h17.4c1.1 0 1.8-1 1.3-2L14 3c-.7-1.2-3.3-1.2-4 0z"></path></svg><text x="1230.69" y="684.15" font-family="Manrope, Segoe UI, sans-serif" font-size="10" font-weight="700" fill="rgb(177, 59, 50)">Kechikkan · 1 s 24 daq</text><text x="279.8" y="743.19" font-family="Manrope, Segoe UI, sans-serif" font-size="12" font-weight="700" fill="rgb(37, 53, 46)">Parolni tiklash kodi kelmayapti</text><rect x="279.8" y="758.75" width="5" height="5" rx="50" fill="rgb(23, 99, 77)"/><text x="289.8" y="763.03" font-family="Manrope, Segoe UI, sans-serif" font-size="9" font-weight="400" fill="rgb(102, 115, 108)">#HD-8485  ·  Hisob</text><rect x="586.51" y="734.95" width="28" height="28" rx="50" fill="rgb(235, 230, 247)"/><text x="593.65" y="751.43" font-family="Manrope, Segoe UI, sans-serif" font-size="9" font-weight="800" fill="rgb(99, 86, 139)">MK</text><text x="624.51" y="751.75" font-family="Manrope, Segoe UI, sans-serif" font-size="10" font-weight="400" fill="rgb(37, 53, 46)">Madina Karimova</text><rect x="785.56" y="736.95" width="101.03" height="24" rx="6" fill="rgb(239, 234, 250)"/><rect x="793.56" y="745.95" width="6" height="6" rx="50" fill="rgb(112, 82, 149)"/><text x="805.56" y="751.75" font-family="Manrope, Segoe UI, sans-serif" font-size="10" font-weight="700" fill="rgb(112, 82, 149)">Qayta ochilgan</text><svg x="951.8" y="737.05" width="19" height="19" viewBox="0 0 24 24" fill="none" stroke="rgb(171, 101, 34)" stroke-width="1.7" stroke-linecap="round" stroke-linejoin="round"><path d="M4 3v18h17M8 16v-5m5 5V7m5 9V3"></path></svg><text x="976.8" y="749.67" font-family="Manrope, Segoe UI, sans-serif" font-size="11" font-weight="400" fill="rgb(171, 101, 34)">Yuqori</text><rect x="1095.64" y="735.95" width="26" height="26" rx="50" fill="rgb(219, 236, 224)"/><text x="1102.75" y="751.43" font-family="Manrope, Segoe UI, sans-serif" font-size="9" font-weight="800" fill="rgb(23, 99, 77)">SB</text><text x="1127.64" y="752.07" font-family="Manrope, Segoe UI, sans-serif" font-size="11" font-weight="400" fill="rgb(37, 53, 46)">Sardor</text><svg x="1215.69" y="742.95" width="12" height="12" viewBox="0 0 24 24" fill="none" stroke="rgb(102, 115, 108)" stroke-width="1.7" stroke-linecap="round" stroke-linejoin="round"><path d="M12 8v5l3 2M21 12a9 9 0 1 1-18 0 9 9 0 0 1 18 0z"></path></svg><text x="1230.69" y="752.55" font-family="Manrope, Segoe UI, sans-serif" font-size="10" font-weight="400" fill="rgb(102, 115, 108)">22 daq qoldi</text><text x="279.8" y="811.59" font-family="Manrope, Segoe UI, sans-serif" font-size="12" font-weight="700" fill="rgb(37, 53, 46)">Hisobotni yuklab olishda xatolik</text><rect x="279.8" y="827.15" width="5" height="5" rx="50" fill="rgb(23, 99, 77)"/><text x="289.8" y="831.43" font-family="Manrope, Segoe UI, sans-serif" font-size="9" font-weight="400" fill="rgb(102, 115, 108)">#HD-8491  ·  Hisobotlar</text><rect x="586.51" y="803.35" width="28" height="28" rx="50" fill="rgb(226, 237, 246)"/><text x="595.34" y="819.83" font-family="Manrope, Segoe UI, sans-serif" font-size="9" font-weight="800" fill="rgb(70, 101, 125)">JB</text><text x="624.51" y="820.15" font-family="Manrope, Segoe UI, sans-serif" font-size="10" font-weight="400" fill="rgb(37, 53, 46)">Jasur Berdiyev</text><rect x="785.56" y="805.35" width="77.78" height="24" rx="6" fill="rgb(247, 239, 220)"/><rect x="793.56" y="814.35" width="6" height="6" rx="50" fill="rgb(133, 84, 18)"/><text x="805.56" y="820.15" font-family="Manrope, Segoe UI, sans-serif" font-size="10" font-weight="700" fill="rgb(133, 84, 18)">Jarayonda</text><svg x="951.8" y="805.45" width="19" height="19" viewBox="0 0 24 24" fill="none" stroke="rgb(98, 114, 97)" stroke-width="1.7" stroke-linecap="round" stroke-linejoin="round"><path d="M4 3v18h17M8 16v-5m5 5V7m5 9V3"></path></svg><text x="976.8" y="818.07" font-family="Manrope, Segoe UI, sans-serif" font-size="11" font-weight="400" fill="rgb(98, 114, 97)">O‘rta</text><rect x="1095.64" y="804.35" width="26" height="26" rx="50" fill="rgb(219, 236, 224)"/><text x="1101.93" y="819.83" font-family="Manrope, Segoe UI, sans-serif" font-size="9" font-weight="800" fill="rgb(23, 99, 77)">MY</text><text x="1127.64" y="820.47" font-family="Manrope, Segoe UI, sans-serif" font-size="11" font-weight="400" fill="rgb(37, 53, 46)">Malika</text><svg x="1215.69" y="811.35" width="12" height="12" viewBox="0 0 24 24" fill="none" stroke="rgb(102, 115, 108)" stroke-width="1.7" stroke-linecap="round" stroke-linejoin="round"><path d="M12 8v5l3 2M21 12a9 9 0 1 1-18 0 9 9 0 0 1 18 0z"></path></svg><text x="1230.69" y="820.95" font-family="Manrope, Segoe UI, sans-serif" font-size="10" font-weight="400" fill="rgb(102, 115, 108)">37 daq qoldi</text><text x="279.8" y="879.99" font-family="Manrope, Segoe UI, sans-serif" font-size="12" font-weight="700" fill="rgb(37, 53, 46)">Profil ma’lumotlarini yangilash</text><rect x="279.8" y="895.55" width="5" height="5" rx="50" fill="rgb(23, 99, 77)"/><text x="289.8" y="899.83" font-family="Manrope, Segoe UI, sans-serif" font-size="9" font-weight="400" fill="rgb(102, 115, 108)">#HD-8479  ·  Hisob</text><rect x="586.51" y="871.75" width="28" height="28" rx="50" fill="rgb(226, 237, 246)"/><text x="595.46" y="888.23" font-family="Manrope, Segoe UI, sans-serif" font-size="9" font-weight="800" fill="rgb(70, 101, 125)">FE</text><text x="624.51" y="888.55" font-family="Manrope, Segoe UI, sans-serif" font-size="10" font-weight="400" fill="rgb(37, 53, 46)">Farrux Ergashev</text><rect x="785.56" y="873.75" width="54.3" height="24" rx="6" fill="rgb(234, 240, 250)"/><rect x="793.56" y="882.75" width="6" height="6" rx="50" fill="rgb(52, 90, 153)"/><text x="805.56" y="888.55" font-family="Manrope, Segoe UI, sans-serif" font-size="10" font-weight="700" fill="rgb(52, 90, 153)">Yangi</text><svg x="951.8" y="873.85" width="19" height="19" viewBox="0 0 24 24" fill="none" stroke="rgb(95, 122, 156)" stroke-width="1.7" stroke-linecap="round" stroke-linejoin="round"><path d="M4 3v18h17M8 16v-5m5 5V7m5 9V3"></path></svg><text x="976.8" y="886.47" font-family="Manrope, Segoe UI, sans-serif" font-size="11" font-weight="400" fill="rgb(95, 122, 156)">Past</text><rect x="1095.64" y="872.75" width="26" height="26" rx="50" fill="rgb(219, 236, 224)"/><text x="1102.69" y="888.23" font-family="Manrope, Segoe UI, sans-serif" font-size="9" font-weight="800" fill="rgb(23, 99, 77)">BA</text><text x="1127.64" y="888.87" font-family="Manrope, Segoe UI, sans-serif" font-size="11" font-weight="400" fill="rgb(37, 53, 46)">Bobur</text><svg x="1215.69" y="879.75" width="12" height="12" viewBox="0 0 24 24" fill="none" stroke="rgb(102, 115, 108)" stroke-width="1.7" stroke-linecap="round" stroke-linejoin="round"><path d="M12 8v5l3 2M21 12a9 9 0 1 1-18 0 9 9 0 0 1 18 0z"></path></svg><text x="1230.69" y="889.35" font-family="Manrope, Segoe UI, sans-serif" font-size="10" font-weight="400" fill="rgb(102, 115, 108)">2 s 52 daq qoldi</text><rect x="258.8" y="919.55" width="1131.2" height="51.8" rx="0" fill="none" stroke="rgb(228, 232, 226)" stroke-width="0.8"/><text x="279.8" y="948.33" font-family="Manrope, Segoe UI, sans-serif" font-size="9" font-weight="400" fill="rgb(102, 115, 108)">5 ta ko‘rsatilmoqda · 5 ta murojaat</text><svg x="1199.38" y="934.35" width="19" height="19" viewBox="0 0 24 24" fill="none" stroke="rgb(102, 115, 108)" stroke-width="1.7" stroke-linecap="round" stroke-linejoin="round"><path d="m12 2 9 4v6c0 5-5 8-9 10-4-2-9-5-9-10V6l9-4zM8 12l3 3 5-6"></path></svg><text x="1218.38" y="952.63" font-family="Manrope, Segoe UI, sans-serif" font-size="9" font-weight="400" fill="rgb(102, 115, 108)"> Tartib: kechikkanlar, so‘ng ustuvorlik</text><svg x="258" y="995.35" width="12" height="12" viewBox="0 0 24 24" fill="none" stroke="rgb(102, 115, 108)" stroke-width="1.7" stroke-linecap="round" stroke-linejoin="round"><path d="m12 2 9 4v6c0 5-5 8-9 10-4-2-9-5-9-10V6l9-4zM8 12l3 3 5-6"></path></svg><text x="276" y="1003.83" font-family="Manrope, Segoe UI, sans-serif" font-size="9" font-weight="400" fill="rgb(102, 115, 108)">Yordam · Har bir murojaat e’tiborda.</text><text x="1194.83" y="1003.83" font-family="Manrope, Segoe UI, sans-serif" font-size="9" font-weight="400" fill="rgb(102, 115, 108)">Interaktiv dizayn prototipi · Orzuqulov Davlatbek</text></svg>