<svg xmlns="http://www.w3.org/2000/svg" width="1440" height="1000" viewBox="0 0 1440 1000"><title>Jamoa — Yordam</title><rect width="1440" height="1000" fill="#F7F8F4"/><rect x="0" y="0" width="1440" height="1000" rx="0" fill="rgb(247, 248, 244)"/><rect x="0" y="0" width="224" height="1000" rx="0" fill="rgb(255, 255, 255)"/><rect x="29.5" y="28.7" width="39" height="39" rx="11" fill="rgb(23, 99, 77)"/><svg x="37.5" y="36.7" width="23" height="23" viewBox="0 0 24 24" fill="none" stroke="rgb(255, 255, 255)" stroke-width="1.7" stroke-linecap="round" stroke-linejoin="round"><path d="M4 14v-3a8 8 0 0 1 16 0v3M4 12H3v6h4v-6H4m16 0h1v6h-4v-6h3M17 18v2h-5"></path></svg><text x="77" y="55.48" font-family="Manrope, Segoe UI, sans-serif" font-size="24" font-weight="800" fill="rgb(23, 99, 77)" letter-spacing="-1px">yordam</text><text x="169.88" y="55.48" font-family="Manrope, Segoe UI, sans-serif" font-size="24" font-weight="800" fill="rgb(130, 160, 113)" letter-spacing="-1px">.</text><rect x="18" y="96.4" width="187.2" height="55.6" rx="9" fill="none" stroke="rgb(228, 232, 226)" stroke-width="0.8"/><rect x="29.8" y="109.7" width="29" height="29" rx="6" fill="rgb(237, 240, 230)"/><svg x="34.8" y="114.7" width="19" height="19" viewBox="0 0 24 24" fill="none" stroke="rgb(102, 116, 74)" stroke-width="1.7" stroke-linecap="round" stroke-linejoin="round"><path d="M2 5h8l2 3h10v13H2V5z"></path></svg><text x="68.8" y="120.6" font-family="Manrope, Segoe UI, sans-serif" font-size="10" font-weight="700" fill="rgb(37, 53, 46)">Qo‘llab-quvvatlash</text><text x="68.8" y="135.48" font-family="Manrope, Segoe UI, sans-serif" font-size="9" font-weight="400" fill="rgb(102, 115, 108)">Smart Trading jamoasi</text><svg x="174.4" y="114.7" width="19" height="19" viewBox="0 0 24 24" fill="none" stroke="rgb(37, 53, 46)" stroke-width="1.7" stroke-linecap="round" stroke-linejoin="round"><path d="m6 9 6 6 6-6"></path></svg><text x="31" y="187.68" font-family="Manrope, Segoe UI, sans-serif" font-size="9" font-weight="800" fill="rgb(102, 115, 108)" letter-spacing="1.5px">ISH MAYDONI</text><svg x="31" y="214.9" width="19" height="19" viewBox="0 0 24 24" fill="none" stroke="rgb(99, 112, 103)" stroke-width="1.7" stroke-linecap="round" stroke-linejoin="round"><path d="M3 3h7v7H3zM14 3h7v7h-7zM3 14h7v7H3zM14 14h7v7h-7z"></path></svg><text x="62" y="227.84" font-family="Manrope, Segoe UI, sans-serif" font-size="12" font-weight="600" fill="rgb(99, 112, 103)">Bosh sahifa</text><svg x="31" y="263.9" width="19" height="19" viewBox="0 0 24 24" fill="none" stroke="rgb(99, 112, 103)" stroke-width="1.7" stroke-linecap="round" stroke-linejoin="round"><path d="M4 4h16l2 13v3H2v-3L4 4zM3 14h5l2 3h4l2-3h5"></path></svg><text x="62" y="276.84" font-family="Manrope, Segoe UI, sans-serif" font-size="12" font-weight="600" fill="rgb(99, 112, 103)">Murojaatlar</text><rect x="171.98" y="264.4" width="20.23" height="18" rx="5" fill="rgb(227, 232, 223)"/><text x="178.98" y="276.2" font-family="Manrope, Segoe UI, sans-serif" font-size="10" font-weight="600" fill="rgb(82, 99, 78)">6</text><svg x="31" y="320.1" width="19" height="19" viewBox="0 0 24 24" fill="none" stroke="rgb(99, 112, 103)" stroke-width="1.7" stroke-linecap="round" stroke-linejoin="round"><path d="M21 4H3v13h5l4 4v-4h9V4zM7 8h10M7 12h6"></path></svg><text x="62" y="323.44" font-family="Manrope, Segoe UI, sans-serif" font-size="12" font-weight="600" fill="rgb(99, 112, 103)">Javobsiz</text><text x="62" y="342.64" font-family="Manrope, Segoe UI, sans-serif" font-size="12" font-weight="600" fill="rgb(99, 112, 103)">murojaatlar</text><rect x="172.36" y="320.6" width="19.84" height="18" rx="5" fill="rgb(227, 232, 223)"/><text x="179.36" y="332.4" font-family="Manrope, Segoe UI, sans-serif" font-size="10" font-weight="600" fill="rgb(82, 99, 78)">5</text><svg x="31" y="376.3" width="19" height="19" viewBox="0 0 24 24" fill="none" stroke="rgb(99, 112, 103)" stroke-width="1.7" stroke-linecap="round" stroke-linejoin="round"><path d="M4 3v18h17M8 16v-5m5 5V7m5 9V3"></path></svg><text x="62" y="389.24" font-family="Manrope, Segoe UI, sans-serif" font-size="12" font-weight="600" fill="rgb(99, 112, 103)">Hisobotlar</text><rect x="18" y="412.8" width="187.2" height="44" rx="8" fill="rgb(233, 243, 237)"/><svg x="31" y="425.3" width="19" height="19" viewBox="0 0 24 24" fill="none" stroke="rgb(23, 99, 77)" stroke-width="1.7" stroke-linecap="round" stroke-linejoin="round"><path d="M16 21v-3c0-3-2-4-5-4H7c-3 0-5 1-5 4v3M15 3a4 4 0 0 1 0 8m4 3c2 1 3 2 3 4v3M12 7a4 4 0 1 1-8 0 4 4 0 0 1 8 0z"></path></svg><text x="62" y="438.24" font-family="Manrope, Segoe UI, sans-serif" font-size="12" font-weight="800" fill="rgb(23, 99, 77)">Jamoa</text><text x="31" y="496.48" font-family="Manrope, Segoe UI, sans-serif" font-size="9" font-weight="800" fill="rgb(102, 115, 108)" letter-spacing="1.5px">RESURSLAR</text><svg x="31" y="523.7" width="19" height="19" viewBox="0 0 24 24" fill="none" stroke="rgb(99, 112, 103)" stroke-width="1.7" stroke-linecap="round" stroke-linejoin="round"><path d="M12 5C8 2 5 3 2 4v15c3-1 6-2 10 1 4-3 7-2 10-1V4c-3-1-6-2-10 1zm0 0v15"></path></svg><text x="62" y="536.64" font-family="Manrope, Segoe UI, sans-serif" font-size="12" font-weight="600" fill="rgb(99, 112, 103)">Bilimlar bazasi</text><svg x="31" y="572.7" width="19" height="19" viewBox="0 0 24 24" fill="none" stroke="rgb(99, 112, 103)" stroke-width="1.7" stroke-linecap="round" stroke-linejoin="round"><path d="M12 8v5l3 2M21 12a9 9 0 1 1-18 0 9 9 0 0 1 18 0z"></path></svg><text x="62" y="585.64" font-family="Manrope, Segoe UI, sans-serif" font-size="12" font-weight="600" fill="rgb(99, 112, 103)">SLA qoidalari</text><svg x="31" y="621.7" width="19" height="19" viewBox="0 0 24 24" fill="none" stroke="rgb(99, 112, 103)" stroke-width="1.7" stroke-linecap="round" stroke-linejoin="round"><path d="M2 5h8l2 3h10v13H2V5z"></path></svg><text x="62" y="634.64" font-family="Manrope, Segoe UI, sans-serif" font-size="12" font-weight="600" fill="rgb(99, 112, 103)">Loyiha materiallari</text><rect x="18" y="717" width="187.2" height="194" rx="11" fill="rgb(246, 248, 242)"/><rect x="18" y="717" width="187.2" height="194" rx="11" fill="none" stroke="rgb(229, 235, 219)" stroke-width="0.8"/><svg x="34.8" y="733.8" width="26" height="26" viewBox="0 0 24 24" fill="none" stroke="rgb(23, 99, 77)" stroke-width="1.7" stroke-linecap="round" stroke-linejoin="round"><path d="m12 2 9 4v6c0 5-5 8-9 10-4-2-9-5-9-10V6l9-4zM8 12l3 3 5-6"></path></svg><text x="34.8" y="786.44" font-family="Manrope, Segoe UI, sans-serif" font-size="12" font-weight="700" fill="rgb(37, 53, 46)">Har bir javob muhim</text><text x="34.8" y="807.4" font-family="Manrope, Segoe UI, sans-serif" font-size="10" font-weight="400" fill="rgb(102, 115, 108)">Ichki izohlar faqat jamoangizga</text><text x="34.8" y="823.4" font-family="Manrope, Segoe UI, sans-serif" font-size="10" font-weight="400" fill="rgb(102, 115, 108)">ko‘rinadi.</text><rect x="34.8" y="840.6" width="153.6" height="53.6" rx="8" fill="rgb(255, 255, 255)"/><rect x="34.8" y="840.6" width="153.6" height="53.6" rx="8" fill="none" stroke="rgb(228, 232, 226)" stroke-width="0.8"/><text x="46.46" y="870.2" font-family="Manrope, Segoe UI, sans-serif" font-size="10" font-weight="700" fill="rgb(23, 99, 77)">Xavfsiz javob yozish</text><svg x="150.75" y="850.4" width="26" height="26" viewBox="0 0 24 24" fill="none" stroke="rgb(23, 99, 77)" stroke-width="1.7" stroke-linecap="round" stroke-linejoin="round"><path d="M4 12h16m-6-6 6 6-6 6"></path></svg><rect x="18" y="929" width="187.2" height="53" rx="0" fill="none" stroke="rgb(228, 232, 226)" stroke-width="0.8"/><rect x="23" y="947.9" width="33" height="33" rx="50" fill="rgb(219, 236, 224)"/><text x="31.3" y="967.52" font-family="Manrope, Segoe UI, sans-serif" font-size="11" font-weight="800" fill="rgb(23, 99, 77)">MY</text><text x="65" y="961.12" font-family="Manrope, Segoe UI, sans-serif" font-size="11" font-weight="700" fill="rgb(37, 53, 46)">Malika Yusupova</text><text x="65" y="977.28" font-family="Manrope, Segoe UI, sans-serif" font-size="9" font-weight="400" fill="rgb(23, 99, 77)">●</text><text x="70.44" y="977.28" font-family="Manrope, Segoe UI, sans-serif" font-size="9" font-weight="400" fill="rgb(102, 115, 108)"> Agent · onlayn</text><svg x="184.2" y="954.9" width="16" height="19" viewBox="0 0 24 24" fill="none" stroke="rgb(124, 133, 126)" stroke-width="1.7" stroke-linecap="round" stroke-linejoin="round"><path d="m6 9 6 6 6-6"></path></svg><rect x="224" y="0" width="1216" height="76" rx="0" fill="rgba(255, 255, 255, 0.72)"/><text x="258" y="40.72" font-family="Manrope, Segoe UI, sans-serif" font-size="11" font-weight="400" fill="rgb(102, 115, 108)">Ish maydoni</text><text x="326.9" y="40.72" font-family="Manrope, Segoe UI, sans-serif" font-size="11" font-weight="400" fill="rgb(102, 115, 108)">/</text><text x="340.16" y="40.72" font-family="Manrope, Segoe UI, sans-serif" font-size="11" font-weight="600" fill="rgb(60, 74, 65)">Jamoa</text><text x="948.42" y="40.4" font-family="Manrope, Segoe UI, sans-serif" font-size="10" font-weight="400" fill="rgb(102, 115, 108)">3-oktabr, 2026 · Shanba</text><rect x="1071.03" y="14.8" width="233.98" height="45.6" rx="8" fill="rgb(247, 248, 244)"/><rect x="1071.03" y="14.8" width="233.98" height="45.6" rx="8" fill="none" stroke="rgb(228, 232, 226)" stroke-width="0.8"/><rect x="1075.83" y="19.6" width="83.05" height="36" rx="5" fill="rgb(255, 255, 255)"/><text x="1086.83" y="40.4" font-family="Manrope, Segoe UI, sans-serif" font-size="10" font-weight="700" fill="rgb(23, 99, 77)">Agent paneli</text><text x="1172.88" y="40.4" font-family="Manrope, Segoe UI, sans-serif" font-size="10" font-weight="700" fill="rgb(102, 115, 108)">Mijoz portali</text><text x="1257.46" y="40.4" font-family="Manrope, Segoe UI, sans-serif" font-size="10" font-weight="700" fill="rgb(102, 115, 108)">Loyiha</text><rect x="1319" y="17.6" width="40" height="40" rx="9" fill="rgb(255, 255, 255)"/><rect x="1319" y="17.6" width="40" height="40" rx="9" fill="none" stroke="rgb(228, 232, 226)" stroke-width="0.8"/><svg x="1329.5" y="28.1" width="19" height="19" viewBox="0 0 24 24" fill="none" stroke="rgb(23, 99, 77)" stroke-width="1.7" stroke-linecap="round" stroke-linejoin="round"><path d="M18 8a6 6 0 0 0-12 0v7l-2 3h16l-2-3V8M10 21h4"></path></svg><rect x="1341.2" y="28.4" width="6" height="6" rx="50" fill="rgb(212, 120, 88)"/><rect x="1341.2" y="28.4" width="6" height="6" rx="50" fill="none" stroke="rgb(255, 255, 255)" stroke-width="0.8"/><rect x="1373" y="21.1" width="33" height="33" rx="50" fill="rgb(219, 236, 224)"/><text x="1381.3" y="40.72" font-family="Manrope, Segoe UI, sans-serif" font-size="11" font-weight="800" fill="rgb(23, 99, 77)">MY</text><text x="258" y="133.48" font-family="Manrope, Segoe UI, sans-serif" font-size="29" font-weight="800" fill="rgb(37, 53, 46)" letter-spacing="-1.1px">Qo‘llab-quvvatlash jamoasi</text><text x="258" y="164.19" font-family="Manrope, Segoe UI, sans-serif" font-size="12" font-weight="400" fill="rgb(102, 115, 108)">Mas’ullar va ularning joriy yuklamasi.</text><rect x="258" y="195.35" width="370.66" height="225.4" rx="14" fill="rgb(255, 255, 255)"/><rect x="258" y="195.35" width="370.66" height="225.4" rx="14" fill="none" stroke="rgb(228, 232, 226)" stroke-width="0.8"/><rect x="277.8" y="215.15" width="42" height="42" rx="50" fill="rgb(219, 236, 224)"/><text x="288.36" y="240.63" font-family="Manrope, Segoe UI, sans-serif" font-size="14" font-weight="800" fill="rgb(23, 99, 77)">MY</text><text x="329.8" y="231.51" font-family="Manrope, Segoe UI, sans-serif" font-size="13" font-weight="800" fill="rgb(37, 53, 46)" letter-spacing="-0.35px">Malika Yusupova</text><text x="329.8" y="249.67" font-family="Manrope, Segoe UI, sans-serif" font-size="11" font-weight="400" fill="rgb(102, 115, 108)">Qo‘llab-quvvatlash agenti</text><rect x="277.8" y="275.15" width="331.06" height="0.8" rx="0" fill="none" stroke="rgb(228, 232, 226)" stroke-width="0.8"/><text x="277.8" y="304.75" font-family="Manrope, Segoe UI, sans-serif" font-size="10" font-weight="400" fill="rgb(102, 115, 108)">Ochiq murojaatlar</text><text x="590.81" y="304.75" font-family="Manrope, Segoe UI, sans-serif" font-size="10" font-weight="700" fill="rgb(37, 53, 46)">2 ta</text><text x="277.8" y="333.75" font-family="Manrope, Segoe UI, sans-serif" font-size="10" font-weight="400" fill="rgb(102, 115, 108)">Javobsiz murojaatlar</text><text x="590.81" y="333.75" font-family="Manrope, Segoe UI, sans-serif" font-size="10" font-weight="700" fill="rgb(37, 53, 46)">2 ta</text><rect x="277.8" y="358.95" width="331.06" height="42" rx="8" fill="rgb(255, 255, 255)"/><rect x="277.8" y="358.95" width="331.06" height="42" rx="8" fill="none" stroke="rgb(228, 232, 226)" stroke-width="0.8"/><text x="368.15" y="383.39" font-family="Manrope, Segoe UI, sans-serif" font-size="12" font-weight="700" fill="rgb(37, 53, 46)">Murojaatlarini ko‘rish</text><svg x="499.51" y="370.45" width="19" height="19" viewBox="0 0 24 24" fill="none" stroke="rgb(37, 53, 46)" stroke-width="1.7" stroke-linecap="round" stroke-linejoin="round"><path d="M4 12h16m-6-6 6 6-6 6"></path></svg><rect x="646.66" y="195.35" width="370.66" height="225.4" rx="14" fill="rgb(255, 255, 255)"/><rect x="646.66" y="195.35" width="370.66" height="225.4" rx="14" fill="none" stroke="rgb(228, 232, 226)" stroke-width="0.8"/><rect x="666.46" y="215.15" width="42" height="42" rx="50" fill="rgb(235, 230, 247)"/><text x="678.3" y="240.63" font-family="Manrope, Segoe UI, sans-serif" font-size="14" font-weight="800" fill="rgb(99, 86, 139)">SB</text><text x="718.46" y="231.51" font-family="Manrope, Segoe UI, sans-serif" font-size="13" font-weight="800" fill="rgb(37, 53, 46)" letter-spacing="-0.35px">Sardor Baxtiyorov</text><text x="718.46" y="249.67" font-family="Manrope, Segoe UI, sans-serif" font-size="11" font-weight="400" fill="rgb(102, 115, 108)">Qo‘llab-quvvatlash agenti</text><rect x="666.46" y="275.15" width="331.06" height="0.8" rx="0" fill="none" stroke="rgb(228, 232, 226)" stroke-width="0.8"/><text x="666.46" y="304.75" font-family="Manrope, Segoe UI, sans-serif" font-size="10" font-weight="400" fill="rgb(102, 115, 108)">Ochiq murojaatlar</text><text x="979.48" y="304.75" font-family="Manrope, Segoe UI, sans-serif" font-size="10" font-weight="700" fill="rgb(37, 53, 46)">2 ta</text><text x="666.46" y="333.75" font-family="Manrope, Segoe UI, sans-serif" font-size="10" font-weight="400" fill="rgb(102, 115, 108)">Javobsiz murojaatlar</text><text x="979.48" y="333.75" font-family="Manrope, Segoe UI, sans-serif" font-size="10" font-weight="700" fill="rgb(37, 53, 46)">2 ta</text><rect x="666.46" y="358.95" width="331.06" height="42" rx="8" fill="rgb(255, 255, 255)"/><rect x="666.46" y="358.95" width="331.06" height="42" rx="8" fill="none" stroke="rgb(228, 232, 226)" stroke-width="0.8"/><text x="756.81" y="383.39" font-family="Manrope, Segoe UI, sans-serif" font-size="12" font-weight="700" fill="rgb(37, 53, 46)">Murojaatlarini ko‘rish</text><svg x="888.17" y="370.45" width="19" height="19" viewBox="0 0 24 24" fill="none" stroke="rgb(37, 53, 46)" stroke-width="1.7" stroke-linecap="round" stroke-linejoin="round"><path d="M4 12h16m-6-6 6 6-6 6"></path></svg><rect x="1035.33" y="195.35" width="370.68" height="225.4" rx="14" fill="rgb(255, 255, 255)"/><rect x="1035.33" y="195.35" width="370.68" height="225.4" rx="14" fill="none" stroke="rgb(228, 232, 226)" stroke-width="0.8"/><rect x="1055.13" y="215.15" width="42" height="42" rx="50" fill="rgb(248, 230, 217)"/><text x="1066.88" y="240.63" font-family="Manrope, Segoe UI, sans-serif" font-size="14" font-weight="800" fill="rgb(151, 96, 71)">BA</text><text x="1107.13" y="231.51" font-family="Manrope, Segoe UI, sans-serif" font-size="13" font-weight="800" fill="rgb(37, 53, 46)" letter-spacing="-0.35px">Bobur Aliyev</text><text x="1107.13" y="249.67" font-family="Manrope, Segoe UI, sans-serif" font-size="11" font-weight="400" fill="rgb(102, 115, 108)">Qo‘llab-quvvatlash agenti</text><rect x="1055.13" y="275.15" width="331.08" height="0.8" rx="0" fill="none" stroke="rgb(228, 232, 226)" stroke-width="0.8"/><text x="1055.13" y="304.75" font-family="Manrope, Segoe UI, sans-serif" font-size="10" font-weight="400" fill="rgb(102, 115, 108)">Ochiq murojaatlar</text><text x="1368.15" y="304.75" font-family="Manrope, Segoe UI, sans-serif" font-size="10" font-weight="700" fill="rgb(37, 53, 46)">2 ta</text><text x="1055.13" y="333.75" font-family="Manrope, Segoe UI, sans-serif" font-size="10" font-weight="400" fill="rgb(102, 115, 108)">Javobsiz murojaatlar</text><text x="1369.72" y="333.75" font-family="Manrope, Segoe UI, sans-serif" font-size="10" font-weight="700" fill="rgb(37, 53, 46)">1 ta</text><rect x="1055.13" y="358.95" width="331.08" height="42" rx="8" fill="rgb(255, 255, 255)"/><rect x="1055.13" y="358.95" width="331.08" height="42" rx="8" fill="none" stroke="rgb(228, 232, 226)" stroke-width="0.8"/><text x="1145.47" y="383.39" font-family="Manrope, Segoe UI, sans-serif" font-size="12" font-weight="700" fill="rgb(37, 53, 46)">Murojaatlarini ko‘rish</text><svg x="1276.84" y="370.45" width="19" height="19" viewBox="0 0 24 24" fill="none" stroke="rgb(37, 53, 46)" stroke-width="1.7" stroke-linecap="round" stroke-linejoin="round"><path d="M4 12h16m-6-6 6 6-6 6"></path></svg><svg x="258" y="443.95" width="12" height="12" viewBox="0 0 24 24" fill="none" stroke="rgb(102, 115, 108)" stroke-width="1.7" stroke-linecap="round" stroke-linejoin="round"><path d="m12 2 9 4v6c0 5-5 8-9 10-4-2-9-5-9-10V6l9-4zM8 12l3 3 5-6"></path></svg><text x="276" y="452.43" font-family="Manrope, Segoe UI, sans-serif" font-size="9" font-weight="400" fill="rgb(102, 115, 108)">Yordam · Har bir murojaat e’tiborda.</text><text x="1210.03" y="452.43" font-family="Manrope, Segoe UI, sans-serif" font-size="9" font-weight="400" fill="rgb(102, 115, 108)">Interaktiv dizayn prototipi · Orzuqulov Davlatbek</text></svg>